<svg id="_" xmlns="http://www.w3.org/2000/svg" viewBox="0 0 657.62 395.28"><defs><style>.cls-1{fill:#eb7553;}.cls-2{fill:#a94644;}.cls-3{fill:#8d453b;}.cls-4{fill:#7e2627;}.cls-5{fill:#ffc182;}.cls-6{fill:#a2c0d9;}.cls-7{fill:#e19f68;}.cls-8{fill:#4e5057;}.cls-9{fill:#fff;}.cls-10{fill:#a24e41;}.cls-11{fill:#693132;}.cls-12{fill:#c56d48;}.cls-13{fill:#74a798;}.cls-14{fill:#3e3642;}.cls-15{fill:#349989;}.cls-16{fill:#0c6361;}.cls-17{fill:#41373b;}.cls-18{fill:#7c878c;}.cls-19{fill:#934016;}.cls-20{fill:#c57036;}.cls-21{fill:#606876;}.cls-22{fill:#e09036;}.cls-23{fill:#9c5647;}.cls-24{fill:#5d696d;}.cls-25{fill:#3d2114;}</style></defs><title>standup</title><path class="cls-1" d="M8.64,179.44H37v-72.3l-14.17,2A31.65,31.65,0,0,0-4.22,138.34l-1.73,25.48A14.62,14.62,0,0,0,8.64,179.44Z" transform="translate(5.99 -23.56)"/><path class="cls-2" d="M22.85,109.18a31.14,31.14,0,0,0-5.43,1.28c-3.54,7.35-7.72,14.45-9.91,22.29a62.21,62.21,0,0,0-2,22.55c.53,6.42,2.13,13.46,5.63,19a17.7,17.7,0,0,0,4.62,5.1H37v-72.3Z" transform="translate(5.99 -23.56)"/><path class="cls-3" d="M42.34,59.56a1.19,1.19,0,0,1-.58-.15,18,18,0,0,0-10.88-2.07A1.19,1.19,0,0,1,30.69,55a20.61,20.61,0,0,1,12.24,2.38,1.18,1.18,0,0,1-.59,2.21Z" transform="translate(5.99 -23.56)"/><path class="cls-3" d="M55.19,59.56a1.18,1.18,0,0,1-.58-2.21A20.58,20.58,0,0,1,66.84,55a1.19,1.19,0,0,1,1.09,1.28,1.17,1.17,0,0,1-1.27,1.09,18.05,18.05,0,0,0-10.89,2.07A1.19,1.19,0,0,1,55.19,59.56Z" transform="translate(5.99 -23.56)"/><polygon class="cls-4" points="31.49 80.99 75.66 88.4 77.32 52.19 75.66 19.96 29.25 14.55 28.4 49.88 31.49 80.99"/><path class="cls-5" d="M65.66,218l5.9.7a4.73,4.73,0,0,0,5.2-3.72l.42-2a17,17,0,0,0-1.1-10.4l-.21-.48V131.93H61.79Z" transform="translate(5.99 -23.56)"/><path class="cls-5" d="M26.69,192.31h0A98.55,98.55,0,0,1,37.76,158l1-1.89-.3-9.78-11.34-18-1.26,7.75-11.34-1.95.81-14.94A17.19,17.19,0,0,1,28.6,103.49l12.42-5,12.78.34,13.92,7.79a8.77,8.77,0,0,1,5.43,7.8l.11,3.1,2.62,7.86a8.38,8.38,0,0,1-.8,7l-6.09,10,1.13,24.21.41,25.72Z" transform="translate(5.99 -23.56)"/><path class="cls-6" d="M37.56,155.93a32.45,32.45,0,0,0-5.42-17l-4.4-6.59-.84,5.2-13.63-2.34.87-16A18.4,18.4,0,0,1,28.32,102.3l9-2.1,1.44,6.2a18.52,18.52,0,0,0,18,14.32h0a8.13,8.13,0,0,0,7.6-11l-2.61-6.82,6.43,2.64a10,10,0,0,1,6.19,8.89l.11,2.92L77,125a9.56,9.56,0,0,1-.92,8l-5.89,9.65,1.11,23.83.43,27H26.52a90.64,90.64,0,0,1,10.74-37.06Z" transform="translate(5.99 -23.56)"/><path class="cls-5" d="M40.83,103c7.67,7.74,13.25,11.14,14.05,4.59l0-17.43h-14Z" transform="translate(5.99 -23.56)"/><path class="cls-7" d="M54.87,101.81l0-12.84h-14v9.17A19.48,19.48,0,0,0,54.87,101.81Z" transform="translate(5.99 -23.56)"/><path class="cls-5" d="M32.11,66.92c-.78-4.36-3.8-7.48-6.75-7s-4.72,4.48-3.95,8.85,3.79,7.47,6.75,7S32.88,71.29,32.11,66.92Z" transform="translate(5.99 -23.56)"/><path class="cls-5" d="M49,93.35h0A22.32,22.32,0,0,0,71.37,71V42.19H26.72V71A22.32,22.32,0,0,0,49,93.35Z" transform="translate(5.99 -23.56)"/><polygon class="cls-8" points="28.84 293.1 38.83 293.1 51.21 190.22 56.36 190.77 50.24 293.1 60.64 293.1 76.54 191.18 77.76 169.98 32.51 169.98 32.71 227.87 29.66 247.03 28.84 293.1"/><path class="cls-5" d="M17,218h6.11l.48-5.61a9.45,9.45,0,0,0-2.93-7.69l-1.42-1.33,6.31-66.09L14.3,135.6l-1.24,32.67-1.62,44A5.52,5.52,0,0,0,17,218Z" transform="translate(5.99 -23.56)"/><polygon class="cls-5" points="28.84 301.15 38.47 301.15 38.83 293.1 28.84 293.1 28.84 301.15"/><polygon class="cls-5" points="50.7 301.15 52.28 311.85 68.13 304.51 63.14 298.09 60.69 293.1 50.7 293.1 50.7 301.15"/><path class="cls-3" d="M35.12,66c0,2.36,1.33,4.27,3,4.27s3-1.91,3-4.27-1.33-4.28-3-4.28S35.12,63.68,35.12,66Z" transform="translate(5.99 -23.56)"/><path class="cls-3" d="M64.86,66c0,2.36-1.33,4.27-3,4.27s-3-1.91-3-4.27,1.33-4.28,3-4.28S64.86,63.68,64.86,66Z" transform="translate(5.99 -23.56)"/><path class="cls-9" d="M48.56,51H64a0,0,0,0,1,0,0v.13a7.49,7.49,0,0,1-7.49,7.49h-.41a7.49,7.49,0,0,1-7.49-7.49V51A0,0,0,0,1,48.56,51Z"/><path class="cls-10" d="M10.57,127.24c.8,1.87,1.62,3.77,1.6,5.22A45,45,0,0,1,17,112.89a20.81,20.81,0,0,1,4.61-6.4c1.37-1.21,3-2.13,4.35-3.36C33.53,96.32,31.36,84,30.9,75a186.73,186.73,0,0,1,1.39-31.26l14.39,5.58L70.2,56.72,71.37,68.4l2.19-17.07c0-14.25-4.93-26.25-17.7-27.77l-7,0A22.21,22.21,0,0,0,29.6,33.21,13.58,13.58,0,0,0,16,46.52c-.33,15.65.71,32.45-3,47.73-1.5,6.27-3.07,12-4,18.42a34.29,34.29,0,0,0,.06,10.51A19.6,19.6,0,0,0,10.57,127.24Z" transform="translate(5.99 -23.56)"/><path class="cls-11" d="M35.29,340.91H15.51v-6.72a4,4,0,0,1,.7-2.24l6.64-9.69h9.63l2.68,10.52a4.06,4.06,0,0,1,.13,1Z" transform="translate(5.99 -23.56)"/><path class="cls-11" d="M78.5,340.91H44.71V324.7l1.94,1a8.51,8.51,0,0,0,7.15.24l5.74-2.44,16.81,8.68a4,4,0,0,1,2.15,3.52Z" transform="translate(5.99 -23.56)"/><rect class="cls-9" x="21.5" y="312.01" width="19.77" height="5.34"/><rect class="cls-9" x="50.7" y="312.01" width="33.79" height="5.34"/><path class="cls-3" d="M67.32,58.2a5.64,5.64,0,0,0-3.56-3.4,5.46,5.46,0,0,0-5.16,1.55c-.93,1.19.67,2.89,1.71,1.7a4.24,4.24,0,0,1,3.4-1.16c1.15.2,2,1.25,2.91,1.84C67,58.94,67.47,58.59,67.32,58.2Z" transform="translate(5.99 -23.56)"/><path class="cls-3" d="M32.66,58.2a5.64,5.64,0,0,1,3.56-3.4,5.46,5.46,0,0,1,5.16,1.55c.93,1.19-.67,2.89-1.71,1.7a4.24,4.24,0,0,0-3.4-1.16c-1.15.2-2,1.25-2.91,1.84C33,58.94,32.51,58.59,32.66,58.2Z" transform="translate(5.99 -23.56)"/><path class="cls-1" d="M25.94,174.4H30c12-24.5,21.5-49,6.77-74l-10.86,1.35C39.18,130.22,35.13,153.68,25.94,174.4Z" transform="translate(5.99 -23.56)"/><path class="cls-1" d="M71.16,172.33c6.41-24.86,4.1-56.78-1.49-67.92L60.23,102C72.13,131.07,71.16,172.33,71.16,172.33Z" transform="translate(5.99 -23.56)"/><path class="cls-3" d="M610.44,59.56a1.26,1.26,0,0,0,.59-.15,18,18,0,0,1,10.88-2.07,1.19,1.19,0,0,0,.18-2.37,20.58,20.58,0,0,0-12.23,2.38,1.18,1.18,0,0,0,.58,2.21Z" transform="translate(5.99 -23.56)"/><path class="cls-3" d="M597.59,59.56a1.18,1.18,0,0,0,.59-2.21A20.6,20.6,0,0,0,586,55a1.19,1.19,0,0,0-1.09,1.28,1.17,1.17,0,0,0,1.27,1.09A18,18,0,0,1,597,59.41,1.25,1.25,0,0,0,597.59,59.56Z" transform="translate(5.99 -23.56)"/><polygon class="cls-12" points="633.27 80.99 589.11 88.4 587.44 52.19 589.11 19.96 635.52 14.55 636.37 49.88 633.27 80.99"/><path class="cls-5" d="M587.13,218l-5.91.7A4.74,4.74,0,0,1,576,215l-.42-2a17,17,0,0,1,1.1-10.4l.22-.48V131.93H591Z" transform="translate(5.99 -23.56)"/><path class="cls-5" d="M626.1,192.31h0A98.56,98.56,0,0,0,615,158l-1-1.89.3-9.78,11.34-18,4.74,5.18,7.86.62-.82-14.94a17.16,17.16,0,0,0-13.23-15.79l-12.42-2.9-12.78.33-13.92,5.72a8.77,8.77,0,0,0-5.43,7.8l-.11,3.1-2.62,7.86a8.38,8.38,0,0,0,.8,7l6.08,10-1.12,24.21-.41,25.72Z" transform="translate(5.99 -23.56)"/><path class="cls-7" d="M593.85,123.58a1.17,1.17,0,0,1-.47-.1,1.23,1.23,0,0,1-.66-1.6l4.07-9.78a1.22,1.22,0,0,1,2.26.94L595,122.82A1.22,1.22,0,0,1,593.85,123.58Z" transform="translate(5.99 -23.56)"/><path class="cls-11" d="M615.23,155.93a32.27,32.27,0,0,1,5.42-17l4.39-6.59,3.6,4.17,17.06-3.14L640,116.14a20.86,20.86,0,0,0-15-13.73l-9.43-2.21-2.79,12A11,11,0,0,1,602,120.72H589.08a3.35,3.35,0,0,1-3.13-4.55l5.09-13.3-6.44,2.64a10,10,0,0,0-6.19,8.89l-.1,2.92L575.75,125a9.6,9.6,0,0,0,.91,8l5.89,9.65-1.11,23.83-.43,27h45.26a90.64,90.64,0,0,0-10.74-37.06Z" transform="translate(5.99 -23.56)"/><path class="cls-5" d="M612,103c-7.66,7.74-13.24,11.14-14,4.59l0-17.43h14Z" transform="translate(5.99 -23.56)"/><path class="cls-7" d="M597.92,101.81V89h14v9.17A19.45,19.45,0,0,1,597.92,101.81Z" transform="translate(5.99 -23.56)"/><path class="cls-5" d="M576.11,68.82c.77,4.36,3.79,7.47,6.74,7s4.73-4.48,3.95-8.85-3.79-7.48-6.74-7S575.33,64.45,576.11,68.82Z" transform="translate(5.99 -23.56)"/><path class="cls-5" d="M620.68,66.92c.77-4.36,3.79-7.48,6.75-7s4.72,4.48,4,8.85-3.8,7.47-6.75,7S619.91,71.29,620.68,66.92Z" transform="translate(5.99 -23.56)"/><path class="cls-5" d="M603.74,93.35h0A22.32,22.32,0,0,1,581.42,71V42.19h44.64V71A22.32,22.32,0,0,1,603.74,93.35Z" transform="translate(5.99 -23.56)"/><polygon class="cls-13" points="624.56 293.1 614.58 293.1 612.42 190.22 609.54 190.77 569.08 293.1 558.68 293.1 588.23 185.5 587 169.98 632.25 169.98 628.64 234.69 629.43 251.57 624.56 293.1"/><polygon class="cls-5" points="648.3 128.22 640.37 111.96 651.09 109.96 657.62 129.5 648.3 128.22"/><polygon class="cls-5" points="624.56 301.15 614.93 301.15 614.58 293.1 624.56 293.1 624.56 301.15"/><polygon class="cls-5" points="568.62 301.15 567.04 311.85 551.19 304.51 556.19 298.09 558.63 293.1 568.62 293.1 568.62 301.15"/><path class="cls-3" d="M616.19,66c-.44,2.36-2.12,4.27-3.76,4.27s-2.6-1.91-2.16-4.27,2.12-4.28,3.76-4.28S616.63,63.68,616.19,66Z" transform="translate(5.99 -23.56)"/><path class="cls-3" d="M586.45,66c-.44,2.36.53,4.27,2.17,4.27s3.32-1.91,3.76-4.27-.53-4.28-2.16-4.28S586.9,63.68,586.45,66Z" transform="translate(5.99 -23.56)"/><path class="cls-1" d="M617.94,118.07l.44-2.49a247,247,0,0,0,2.12-71.87h0l-14.39,5.58-23.52,7.43L581.42,68.4,580,66l-1.43-6.11h0a30,30,0,0,1,.75-27.42h0a16.28,16.28,0,0,1,13.56-8.44l11-.47a22.21,22.21,0,0,1,19.28,9.63h0a13.59,13.59,0,0,1,13.58,13.31l.72,34.66.23,16.56a18.27,18.27,0,0,1-11.85,17.35Z" transform="translate(5.99 -23.56)"/><path class="cls-11" d="M606.14,340.91h19.77v-6.72a4,4,0,0,0-.69-2.24l-6.65-9.69h-9.63l-2.68,10.52a4,4,0,0,0-.12,1Z" transform="translate(5.99 -23.56)"/><path class="cls-11" d="M528.85,340.91h33.78V324.7l-1.93,1a8.51,8.51,0,0,1-7.15.24l-5.75-2.44L531,332.16a4,4,0,0,0-2.14,3.52Z" transform="translate(5.99 -23.56)"/><rect class="cls-11" x="612.13" y="312.01" width="19.77" height="5.34"/><rect class="cls-11" x="534.83" y="312.01" width="33.79" height="5.34"/><path class="cls-3" d="M585.47,58.2A5.65,5.65,0,0,1,589,54.8a5.45,5.45,0,0,1,5.16,1.55c.94,1.19-.66,2.89-1.7,1.7a4.25,4.25,0,0,0-3.4-1.16c-1.16.2-2,1.25-2.91,1.84C585.84,58.94,585.32,58.59,585.47,58.2Z" transform="translate(5.99 -23.56)"/><path class="cls-3" d="M620.12,58.2a5.63,5.63,0,0,0-3.55-3.4,5.46,5.46,0,0,0-5.16,1.55c-.93,1.19.66,2.89,1.7,1.7a4.26,4.26,0,0,1,3.4-1.16c1.16.2,2,1.25,2.91,1.84C619.75,58.94,620.27,58.59,620.12,58.2Z" transform="translate(5.99 -23.56)"/><path class="cls-7" d="M597.75,78.16c2.32-1.16,5.06.21,6.46,2.14.75,1-1,2-1.71,1-1.09-1.5-2.71-1.79-4.44-1.87A.66.66,0,0,1,597.75,78.16Z" transform="translate(5.99 -23.56)"/><polygon class="cls-5" points="651.07 122.39 625.7 148.46 629.55 152.64 657.62 129.5 651.07 122.39"/><ellipse class="cls-5" cx="617.42" cy="169.57" rx="6.63" ry="9.63" transform="translate(19.77 359.52) rotate(-34.84)"/><path class="cls-14" d="M178.34,243.52H144.49V157.27l16.9,2.43a37.75,37.75,0,0,1,32.29,34.79l2.07,30.39A17.45,17.45,0,0,1,178.34,243.52Z" transform="translate(5.99 -23.56)"/><path class="cls-3" d="M145.67,104.54a1.19,1.19,0,0,0,.58-.15,18.13,18.13,0,0,1,10.89-2.08,1.17,1.17,0,0,0,1.27-1.09,1.19,1.19,0,0,0-1.09-1.27,20.63,20.63,0,0,0-12.23,2.37,1.19,1.19,0,0,0,.58,2.22Z" transform="translate(5.99 -23.56)"/><path class="cls-3" d="M132.82,104.54a1.19,1.19,0,0,0,.59-2.22A20.67,20.67,0,0,0,121.17,100a1.19,1.19,0,0,0-1.09,1.27,1.17,1.17,0,0,0,1.28,1.09,18.11,18.11,0,0,1,10.88,2.08A1.19,1.19,0,0,0,132.82,104.54Z" transform="translate(5.99 -23.56)"/><path class="cls-5" d="M109.79,274.31l-4.43.53a3.29,3.29,0,0,1-3.62-2.6l-.8-3.8a15.3,15.3,0,0,1,1-9.39l.43-1V187.91h14.08l-3.74,83.27A3.31,3.31,0,0,1,109.79,274.31Z" transform="translate(5.99 -23.56)"/><path class="cls-15" d="M162.72,245.85H108.9l-1.22-55.44-7.34-.82.88-19.08a13.38,13.38,0,0,1,8.93-12l11.58-4.05,1.71-5.53L134,144.75l18.66.35,3.05,6.58,15.43,4a12.49,12.49,0,0,1,9.26,10.42l2.93,21.47-21,2.35.39-5.2Z" transform="translate(5.99 -23.56)"/><polygon class="cls-5" points="156.05 121.34 145.47 123.79 139.96 136.38 136.25 136.38 136.29 111.61 156.05 111.61 156.05 121.34"/><path class="cls-7" d="M130.29,144.34l0-9.17h19.75v5.5A36,36,0,0,1,130.29,144.34Z" transform="translate(5.99 -23.56)"/><path class="cls-5" d="M137.06,88.41h9.89a17.38,17.38,0,0,1,17.38,17.38v33.79a0,0,0,0,1,0,0H119.68a0,0,0,0,1,0,0V105.78A17.38,17.38,0,0,1,137.06,88.41Z" transform="translate(260.97 233.24) rotate(-167.11)"/><polygon class="cls-11" points="174.82 345.41 159.94 345.41 142.67 252.32 139.96 247.98 138.74 345.41 123.45 345.41 114.89 252.05 114.89 222.29 168.71 222.29 169.72 280.19 172.78 299.35 174.82 345.41"/><path class="cls-5" d="M181.11,270.31h-11a2.93,2.93,0,0,1-2.93-2.68l-.39-4.55a6.06,6.06,0,0,1,1.88-4.94l2.61-2.46L165,189.59l16.1-1.68,1.23,32.67L184,267.3A2.9,2.9,0,0,1,181.11,270.31Z" transform="translate(5.99 -23.56)"/><polygon class="cls-5" points="172.37 353.46 161.52 353.46 159.94 345.41 172.37 345.41 172.37 353.46"/><polygon class="cls-5" points="138.28 353.46 125.85 362.33 120.85 356.83 125.85 350.41 125.85 345.41 138.28 345.41 138.28 353.46"/><path class="cls-5" d="M113.63,108.57c-.22,4.43,2,8.14,5,8.29s5.61-3.32,5.83-7.75-2-8.13-5-8.28S113.85,104.15,113.63,108.57Z" transform="translate(5.99 -23.56)"/><path class="cls-5" d="M159.89,117.22c1.73-4.08,5.37-6.45,8.13-5.28s3.6,5.43,1.88,9.51-5.37,6.44-8.13,5.28S158.16,121.3,159.89,117.22Z" transform="translate(5.99 -23.56)"/><path class="cls-3" d="M155.38,113.73c-.43,2.32-2.09,4-3.69,3.66s-2.57-2.42-2.13-4.74,2.08-4,3.69-3.66S155.82,111.41,155.38,113.73Z" transform="translate(5.99 -23.56)"/><path class="cls-3" d="M126.15,108.28c-.44,2.32.52,4.45,2.13,4.75s3.26-1.34,3.69-3.66-.52-4.45-2.13-4.75S126.58,106,126.15,108.28Z" transform="translate(5.99 -23.56)"/><path class="cls-4" d="M162.25,125.55h0l2.23-27.33-7.25.4a44.2,44.2,0,0,1-13-1.21h0a9.19,9.19,0,0,1-6-5.91h0l-2.45.92a18.36,18.36,0,0,1-8.66,1h0l-8.41,22.14-.49-.69a6.2,6.2,0,0,1-1-4.87l2.18-10.2-1.66-3.7a23.08,23.08,0,0,1-1.94-11.62l.33-3.62A6.83,6.83,0,0,1,123,74.66l6.67.08h0a7.72,7.72,0,0,1,8.12-6.93l7.38.44h0a5.14,5.14,0,0,1,8.25-.87l14.39,16a15.17,15.17,0,0,1,2.92,15.56l-.43,1.14-4.38,21A6.22,6.22,0,0,1,162.25,125.55Z" transform="translate(5.99 -23.56)"/><rect class="cls-4" x="150.62" y="104.44" width="9.82" height="3.52" rx="1.43" ry="1.43" transform="translate(303.45 206.44) rotate(-173.23)"/><rect class="cls-4" x="128.36" y="96" width="11.11" height="3.52" rx="1.43" ry="1.43" transform="translate(260.97 187.5) rotate(-173.03)"/><rect class="cls-9" x="130.18" y="159.93" width="3.79" height="23.34" transform="translate(270.14 319.65) rotate(-180)"/><path class="cls-11" d="M153.65,392h17.93a2.14,2.14,0,0,0,2.14-2.14v-.94a9.59,9.59,0,0,0-2.41-6.36L166.38,377H155.53l-3.12,6.63a9.68,9.68,0,0,0-.91,4.07v2.14A2.14,2.14,0,0,0,153.65,392Z" transform="translate(5.99 -23.56)"/><path class="cls-11" d="M94.8,392H129a3.33,3.33,0,0,0,3.33-3.33V377l-11.62,7.49L117.46,377,93.83,387.4a2.4,2.4,0,0,0-1.44,2.2h0A2.4,2.4,0,0,0,94.8,392Z" transform="translate(5.99 -23.56)"/><polygon class="cls-16" points="142.61 136.38 146.15 127.92 149.95 138.72 142.61 136.38"/><polygon class="cls-16" points="134.69 136.38 131.33 127.36 128.57 135.54 134.69 136.38"/><path class="cls-14" d="M166.54,225.7h-4.08c-12-24.49-21.5-49-6.78-74L166.54,153C153.31,181.52,157.36,205,166.54,225.7Z" transform="translate(5.99 -23.56)"/><path class="cls-14" d="M108.41,223.34c-5.25-25.13-4.57-57.05,1.52-67.92l12.66-1.82C109.35,182.08,108.41,223.34,108.41,223.34Z" transform="translate(5.99 -23.56)"/><path class="cls-7" d="M131.38,123.51a27.76,27.76,0,0,1,6.67.71c2.33.41,4.77.6,7.06,1.2a.87.87,0,0,1-.18,1.71,21.39,21.39,0,0,1-6.35-.78,32.4,32.4,0,0,1-7.37-2.12A.39.39,0,0,1,131.38,123.51Z" transform="translate(5.99 -23.56)"/><path class="cls-3" d="M267.27,132.17a1.14,1.14,0,0,1-.59-.16,18.59,18.59,0,0,0-11.14-2.12,1.2,1.2,0,0,1-1.3-1.11,1.23,1.23,0,0,1,1.11-1.31,21.18,21.18,0,0,1,12.52,2.43,1.21,1.21,0,0,1-.6,2.27Z" transform="translate(5.99 -23.56)"/><path class="cls-3" d="M280.42,132.17a1.2,1.2,0,0,1-1.05-.61,1.22,1.22,0,0,1,.45-1.66,21.21,21.21,0,0,1,12.52-2.43,1.23,1.23,0,0,1,1.12,1.31,1.2,1.2,0,0,1-1.3,1.11A18.59,18.59,0,0,0,281,132,1.17,1.17,0,0,1,280.42,132.17Z" transform="translate(5.99 -23.56)"/><path class="cls-5" d="M299.76,298.47l2.11.25a5.46,5.46,0,0,0,6-4.28l.8-3.82a10.09,10.09,0,0,0-.65-6.18l-1.18-2.65L304,217l-9.09-7,1.4,84.67A3.93,3.93,0,0,0,299.76,298.47Z" transform="translate(5.99 -23.56)"/><polygon class="cls-17" points="247.29 375.78 262.52 375.78 280.19 276.44 282.96 272 284.21 377.13 301.11 377.13 306.11 276.17 306.11 245.72 253.55 245.72 252.5 304.96 249.38 324.57 247.29 375.78"/><polygon class="cls-17" points="309.99 160.08 300.9 165.08 303.81 254.17 312.49 252.49 316.66 247.54 310.4 202.84 309.99 160.08"/><path class="cls-18" d="M241,272.58l2.37-3.39.76-34.54,3.41-28-2.2,65.89h56.8l-3.38-66.42L304,183.63l-23.26-10.38L261,172.9,247.26,176a19.92,19.92,0,0,0-15.49,17.54L228.17,231l.76,41.6Z" transform="translate(5.99 -23.56)"/><path class="cls-8" d="M304,183.63l-23.26-10.38c7.1,14.86,9.68,38.29,8.75,68.37l-.87,40.17h5.25a8.32,8.32,0,0,0,8.31-8.75l-3.4-66.88Z" transform="translate(5.99 -23.56)"/><path class="cls-8" d="M271.86,241.85a212.53,212.53,0,0,0-11.93-68.71L247.26,176a19.92,19.92,0,0,0-15.49,17.54L228.17,231l.82,44.75,10.22-.56,4.18-6,.76-34.54,3.41-28-2.22,66.5a8.33,8.33,0,0,0,8.32,8.6h19.82Z" transform="translate(5.99 -23.56)"/><path class="cls-8" d="M247.26,176h0a19.92,19.92,0,0,0-15.49,17.54L228.17,231l.82,44.75,10.22-.56,4.18-6,.76-34.54,3.41-28Z" transform="translate(5.99 -23.56)"/><path class="cls-5" d="M260.51,172.76a7.51,7.51,0,0,0,3.37,6.23c9.3,6.2,15.87,8.36,16.89,2.36l0-17.84H260.51Z" transform="translate(5.99 -23.56)"/><path class="cls-7" d="M280.76,175.4l0-9.38H260.52v5.63A37,37,0,0,0,280.76,175.4Z" transform="translate(5.99 -23.56)"/><path class="cls-5" d="M300.14,141.64c-.79,4.47-3.88,7.65-6.91,7.12s-4.83-4.59-4-9.06,3.89-7.65,6.91-7.12S300.93,137.17,300.14,141.64Z" transform="translate(5.99 -23.56)"/><path class="cls-5" d="M254.53,139.7c-.79-4.46-3.89-7.65-6.91-7.12s-4.83,4.59-4,9.06,3.88,7.65,6.9,7.12S255.32,144.17,254.53,139.7Z" transform="translate(5.99 -23.56)"/><path class="cls-5" d="M257.28,90.83H303a0,0,0,0,1,0,0v34.58a17.78,17.78,0,0,1-17.78,17.78H275.06a17.78,17.78,0,0,1-17.78-17.78V90.83A0,0,0,0,1,257.28,90.83Z"/><path class="cls-19" d="M296.27,114.39v26.29a24.22,24.22,0,0,1-2.87,11.46l-1.82,3.39L289,151.07a8.54,8.54,0,0,0-7.41-4.3H270.74a8.54,8.54,0,0,0-7.18,3.92l-3.11,4.84-1.81-4a24.32,24.32,0,0,1-2.11-9.9V114.39h-5.24v38.33a17.78,17.78,0,0,0,17.78,17.78h9.67A18.23,18.23,0,0,0,297,152.27V114.39ZM278.2,160.54h-3.75a8.22,8.22,0,0,1-8.22-8.21h0a3.21,3.21,0,0,1,3.21-3.21h13.77a3.21,3.21,0,0,1,3.21,3.21h0A8.22,8.22,0,0,1,278.2,160.54Z" transform="translate(5.99 -23.56)"/><path class="cls-11" d="M242.05,308.76a1.46,1.46,0,0,0,.22,0,1.25,1.25,0,0,0,1.3-1.2c.29-7.11.49-10.27.58-17.4a1.25,1.25,0,1,0-2.5,0c-.09,7.11-.29,10.24-.58,17.33A1.24,1.24,0,0,0,242.05,308.76Z" transform="translate(5.99 -23.56)"/><path class="cls-11" d="M228.37,301.21l.37-5.7a21.39,21.39,0,0,1,.91-6.51,6.26,6.26,0,0,1,3.86-4.06,1.25,1.25,0,1,0-.69-2.41,8.76,8.76,0,0,0-5.52,5.61,23.39,23.39,0,0,0-1.06,7.28l-.37,5.79Z" transform="translate(5.99 -23.56)"/><path class="cls-11" d="M232.21,307.16a1.24,1.24,0,0,0,1.12-1.29,75.71,75.71,0,0,1,.15-9.76,18.43,18.43,0,0,1,1.05-6,1.25,1.25,0,1,0-2.31-1A20.69,20.69,0,0,0,231,296a77.44,77.44,0,0,0-.15,10,1.25,1.25,0,0,0,1.29,1.21Z" transform="translate(5.99 -23.56)"/><path class="cls-5" d="M234.47,294.31h3.19a5.56,5.56,0,0,0,5.54-5.08l.26-3a4.79,4.79,0,0,0-1.48-3.88l-3.17-3,.4-4.16-10.22.56L228.44,288A6,6,0,0,0,234.47,294.31Z" transform="translate(5.99 -23.56)"/><polygon class="cls-5" points="249.79 379.95 260.9 379.95 262.52 375.78 249.79 375.78 249.79 379.95"/><polygon class="cls-5" points="284.68 379.95 286.3 390.9 302.52 383.39 297.4 376.82 297.4 377.13 284.68 377.13 284.68 379.95"/><path class="cls-3" d="M260.9,138.8c0,2.42,1.36,4.37,3,4.37s3-1.95,3-4.37-1.36-4.38-3-4.38S260.9,136.38,260.9,138.8Z" transform="translate(5.99 -23.56)"/><path class="cls-3" d="M291.34,138.8c0,2.42-1.36,4.37-3,4.37s-3-1.95-3-4.37,1.36-4.38,3-4.38S291.34,136.38,291.34,138.8Z" transform="translate(5.99 -23.56)"/><path class="cls-7" d="M276.82,154.66a16,16,0,0,1-7.86-2.19,1.1,1.1,0,0,1-.43-1.51,1.12,1.12,0,0,1,1.52-.43,13,13,0,0,0,13.57,0,1.11,1.11,0,0,1,1.08,1.95A16.16,16.16,0,0,1,276.82,154.66Z" transform="translate(5.99 -23.56)"/><path class="cls-19" d="M249.79,143.08a7.19,7.19,0,0,0,1.5,4.39h0L255.73,116l5.93,1.72,32,5.79,3.33,24h0a10.54,10.54,0,0,0,1.52-5.27l.16-9.67.47-5.3a28,28,0,0,0-.47-17.71h0c-2.42-6.67-7.07-11.55-14.06-12.81l-6.14-1.1a21.12,21.12,0,0,0-20,7.36l-1,1.27h0c-5,.57-11.31,4.47-12,9.49h0a30.45,30.45,0,0,0,.4,10.64l1.68,7.8Z" transform="translate(5.99 -23.56)"/><rect class="cls-20" x="264.91" y="104.44" width="10.88" height="3.6" rx="1.29" ry="1.29"/><rect class="cls-20" x="281.26" y="127.99" width="11.25" height="3.6" rx="1.29" ry="1.29" transform="matrix(1, -0.01, 0.01, 1, 4.9, -21.12)"/><polygon class="cls-17" points="265.02 395.28 242.28 395.28 242.28 388.4 249.79 377.45 260.9 377.45 265.02 388.71 265.02 395.28"/><polygon class="cls-17" points="325.51 395.28 284.68 395.28 284.68 379.95 287.76 384.02 299.86 378.7 325.51 388.71 325.51 395.28"/><path class="cls-21" d="M205.42,343.47a5.66,5.66,0,0,0,5.66,5.63h52a5.66,5.66,0,0,0,5.66-5.64l.17-36.46a5.67,5.67,0,0,0-5.66-5.68H210.82a5.65,5.65,0,0,0-5.65,5.69Z" transform="translate(5.99 -23.56)"/><path class="cls-18" d="M211.08,349.1h41a5.67,5.67,0,0,0,5.66-5.66V307a5.67,5.67,0,0,0-5.66-5.66H210.82a5.65,5.65,0,0,0-5.65,5.69l.25,36.46A5.66,5.66,0,0,0,211.08,349.1Z" transform="translate(5.99 -23.56)"/><path class="cls-11" d="M228.33,301.21l.42-7.17a1.25,1.25,0,0,0-2.5-.09l-.43,7.26Z" transform="translate(5.99 -23.56)"/><path class="cls-11" d="M237.81,290.31l-.51,10.9h2.5l.51-10.81a8.78,8.78,0,0,0-.8-4.62,1.25,1.25,0,0,0-2.17,1.26A6.82,6.82,0,0,1,237.81,290.31Z" transform="translate(5.99 -23.56)"/><path class="cls-3" d="M488.59,106.48a1.17,1.17,0,0,1-.6-.16,18.62,18.62,0,0,0-11.19-2.13,1.22,1.22,0,0,1-.19-2.43,21.17,21.17,0,0,1,12.58,2.44,1.22,1.22,0,0,1,.46,1.66A1.24,1.24,0,0,1,488.59,106.48Z" transform="translate(5.99 -23.56)"/><path class="cls-3" d="M501.8,106.48a1.23,1.23,0,0,1-1.06-.62,1.21,1.21,0,0,1,.46-1.66,21.17,21.17,0,0,1,12.58-2.44,1.22,1.22,0,0,1-.19,2.43,18.62,18.62,0,0,0-11.19,2.13A1.2,1.2,0,0,1,501.8,106.48Z" transform="translate(5.99 -23.56)"/><polygon class="cls-19" points="470.03 112.64 527.56 121.87 526.45 99.65 525.63 69.72 475.95 63.02 470.71 84.87 470.03 112.64"/><path class="cls-5" d="M512.56,269.39l6.07.72a4.87,4.87,0,0,0,5.35-3.83l.43-2a17.48,17.48,0,0,0-1.13-10.7l-.22-.49V180.89H508.58Z" transform="translate(5.99 -23.56)"/><path class="cls-5" d="M472.49,243h0a101.25,101.25,0,0,1,11.39-35.24l1.05-2-.3-10.06L473,177.28l-1.29,8-11.66-2,.84-15.36a17.64,17.64,0,0,1,13.61-16.23l12.76-3,13.15.35,14.31,5.88a9,9,0,0,1,5.59,8l.11,3.18,2.69,8.08a8.61,8.61,0,0,1-.82,7.22L516,191.63l1.16,24.9.42,26.45Z" transform="translate(5.99 -23.56)"/><path class="cls-22" d="M472.32,244.24h46.53l-.44-27.77L517.27,192l6.05-9.92a9.87,9.87,0,0,0,.95-8.27l-2.64-7.91-.11-3a10.28,10.28,0,0,0-6.36-9.14l-14.53-6-13.54-.36-12.92,3a18.92,18.92,0,0,0-14.58,17.4l-.9,16.47,14,2.41.87-5.34,4.51,6.76a33.25,33.25,0,0,1,5.58,17.45h0l-.31.56a93,93,0,0,0-11,38.11Z" transform="translate(5.99 -23.56)"/><path class="cls-5" d="M487,151.17c7.89,8,13.63,11.45,14.45,4.72l0-17.92H487Z" transform="translate(5.99 -23.56)"/><path class="cls-7" d="M501.46,149.92V136.71h-14.4v9.43A20,20,0,0,0,501.46,149.92Z" transform="translate(5.99 -23.56)"/><path class="cls-5" d="M523.9,116c-.8,4.49-3.91,7.69-6.94,7.15s-4.86-4.61-4.06-9.1,3.9-7.69,6.93-7.15S524.69,111.5,523.9,116Z" transform="translate(5.99 -23.56)"/><path class="cls-5" d="M478.06,114c-.79-4.49-3.9-7.69-6.94-7.15s-4.85,4.61-4.06,9.1,3.9,7.69,6.94,7.15S478.86,118.53,478.06,114Z" transform="translate(5.99 -23.56)"/><path class="cls-5" d="M478.52,65.05h45.9a0,0,0,0,1,0,0V94.71a23,23,0,0,1-23,23h0a23,23,0,0,1-23-23V65.05A0,0,0,0,1,478.52,65.05Z"/><polygon class="cls-15" points="474.53 347.28 484.81 347.28 500.05 241.49 502.83 240.8 496.54 347.28 507.23 347.28 523.58 242.48 524.84 220.68 478.31 220.68 478.52 280.21 475.37 299.91 474.53 347.28"/><path class="cls-5" d="M462.48,269.39h6.28l.49-5.76a9.71,9.71,0,0,0-3-7.91l-1.46-1.37,6.49-68-11.52-1.73-1.27,33.59-1.67,45.26A5.68,5.68,0,0,0,462.48,269.39Z" transform="translate(5.99 -23.56)"/><polygon class="cls-5" points="474.53 355.56 484.44 355.56 484.81 347.28 474.53 347.28 474.53 355.56"/><polygon class="cls-5" points="497.01 355.56 498.64 366.56 514.93 359.01 509.8 352.41 507.29 347.28 497.01 347.28 497.01 355.56"/><ellipse class="cls-3" cx="488.94" cy="89.58" rx="3.05" ry="4.4"/><ellipse class="cls-3" cx="513.42" cy="89.58" rx="3.05" ry="4.4"/><path class="cls-20" d="M470.05,147.4l3-24.2,5.18-33L493,95.91l24.19,7.64,1.2,12,1.47-2.44,1.47-6.29.41-.84a29.05,29.05,0,0,0-.72-26.53h0a18.42,18.42,0,0,0-15.34-9.54l-10.41-.45a22.85,22.85,0,0,0-19.83,9.91h0a9.74,9.74,0,0,0-9,6h0a107.59,107.59,0,0,0-8,43.81h0a18,18,0,0,0,5.65,12.61Z" transform="translate(5.99 -23.56)"/><polygon class="cls-2" points="487.32 368.45 466.99 368.45 466.99 364.05 474.53 353.04 484.44 353.04 487.32 364.36 487.32 368.45"/><path class="cls-2" d="M525.77,392H491V379.11l1.71.86a9.44,9.44,0,0,0,7.93.27l5.61-2.39,19.5,10.07Z" transform="translate(5.99 -23.56)"/><path class="cls-20" d="M513,105.07a5.8,5.8,0,0,0-3.65-3.49,5.64,5.64,0,0,0-5.31,1.59c-1,1.23.68,3,1.75,1.75a4.33,4.33,0,0,1,3.5-1.19c1.19.2,2,1.28,3,1.89C512.63,105.83,513.16,105.47,513,105.07Z" transform="translate(5.99 -23.56)"/><path class="cls-20" d="M477.38,105.07a5.8,5.8,0,0,1,3.65-3.49,5.65,5.65,0,0,1,5.31,1.59c1,1.23-.69,3-1.76,1.75a4.3,4.3,0,0,0-3.49-1.19c-1.19.2-2,1.28-3,1.89C477.76,105.83,477.22,105.47,477.38,105.07Z" transform="translate(5.99 -23.56)"/><path class="cls-20" d="M502.78,122.11a10,10,0,0,1-4.87,2.67,7.86,7.86,0,0,1-3.41-.16c-.75-.18-1.07-.46-1.82-.21a.38.38,0,0,0-.27.46c.64,1.78,3.8,1.73,5.34,1.47a8,8,0,0,0,5.81-3.64A.5.5,0,0,0,502.78,122.11Z" transform="translate(5.99 -23.56)"/><rect class="cls-11" x="475.37" y="241.23" width="3.78" height="19.91"/><path class="cls-11" d="M470.5,262.27h-1.22L469,266h4.12v-1.26A2.64,2.64,0,0,0,470.5,262.27Z" transform="translate(5.99 -23.56)"/><path class="cls-11" d="M456.86,262.27h-2.33a2.44,2.44,0,0,0-2.42,2.51V266h5.2C456.87,265.39,456.75,264.08,456.86,262.27Z" transform="translate(5.99 -23.56)"/><path class="cls-11" d="M448.67,308.85l28.9,2.4a4.72,4.72,0,0,0,5.09-5.12l-2.46-27.34a4.45,4.45,0,0,0-4.43-4.05h-22a6.33,6.33,0,0,0-6.2,5L443,301.21A6.34,6.34,0,0,0,448.67,308.85Z" transform="translate(5.99 -23.56)"/><path class="cls-23" d="M471.42,310.74l6.15.51a4.72,4.72,0,0,0,5.09-5.12l-2.46-27.34a4.45,4.45,0,0,0-4.43-4.05h-6.62C473.19,274.74,475.46,310.74,471.42,310.74Z" transform="translate(5.99 -23.56)"/><rect class="cls-11" x="458.1" y="241.23" width="4.25" height="19.91"/><rect class="cls-22" x="468.75" y="261.14" width="5.78" height="8.31" rx="2.82" ry="2.82"/><rect class="cls-22" x="454.08" y="261.14" width="5.78" height="8.31" rx="2.82" ry="2.82"/><path class="cls-3" d="M388.9,131.54a1.28,1.28,0,0,1,.5-1.7,21,21,0,0,1,12.5-2.4,1.2,1.2,0,0,1-.2,2.4,18.13,18.13,0,0,0-11.1,2.1,1.42,1.42,0,0,1-.6.2A1.15,1.15,0,0,1,388.9,131.54Z" transform="translate(5.99 -23.56)"/><path class="cls-3" d="M376.2,131.94c-4-2.3-7.9-2.3-11.1-2.1a1.2,1.2,0,1,1-.2-2.4,21,21,0,0,1,12.5,2.4,1.31,1.31,0,0,1,.5,1.7,1.38,1.38,0,0,1-1.1.6A.73.73,0,0,1,376.2,131.94Z" transform="translate(5.99 -23.56)"/><path class="cls-5" d="M360.9,294.74l1.4-84.7-9.1,7-2.7,64.8-1.2,2.6a10.2,10.2,0,0,0-.7,6.2l.8,3.8a5.49,5.49,0,0,0,6,4.3l2.1-.3A3.78,3.78,0,0,0,360.9,294.74Z" transform="translate(5.99 -23.56)"/><polygon class="cls-17" points="419.89 324.58 416.69 304.98 415.69 245.78 363.09 245.78 363.09 276.18 368.09 377.18 384.99 377.18 386.29 271.98 388.99 276.48 406.69 375.78 421.89 375.78 419.89 324.58"/><polygon class="cls-24" points="358.79 202.88 352.59 247.58 356.69 252.48 365.39 254.18 368.29 165.08 359.19 160.08 358.79 202.88"/><path class="cls-18" d="M428.3,272.64l.8-41.6-3.6-37.5A20,20,0,0,0,410,176l-13.8-3.1-19.7.3-23.3,10.4,5.2,22.6-3.4,66.4h56.8l-2.2-65.9,3.4,28,.8,34.5,2.4,3.4Z" transform="translate(5.99 -23.56)"/><path class="cls-5" d="M396.7,163.54H376.4v17.8c1,6,7.6,3.8,16.9-2.4a7.48,7.48,0,0,0,3.4-6.2Z" transform="translate(5.99 -23.56)"/><path class="cls-7" d="M396.7,171.64V166H376.5v9.4A36.66,36.66,0,0,0,396.7,171.64Z" transform="translate(5.99 -23.56)"/><path class="cls-5" d="M361.1,132.54c3-.6,6.1,2.6,6.9,7.1s-1,8.5-4,9.1-6.1-2.6-6.9-7.1S358.1,133.14,361.1,132.54Z" transform="translate(5.99 -23.56)"/><path class="cls-5" d="M406.7,148.84c3,.6,6.1-2.6,6.9-7.1s-1-8.6-4-9.1-6.1,2.6-6.9,7.1S403.7,148.24,406.7,148.84Z" transform="translate(5.99 -23.56)"/><path class="cls-5" d="M405.9,149v-34.6H360.3v34.5a17.84,17.84,0,0,0,17.8,17.8h10.1A17.67,17.67,0,0,0,405.9,149Z" transform="translate(5.99 -23.56)"/><path class="cls-5" d="M428.8,288l-.6-12.3-10.1-.6.4,4.2-3.2,3a4.72,4.72,0,0,0-1.5,3.9l.3,3a5.48,5.48,0,0,0,5.5,5.1h3.2A6,6,0,0,0,428.8,288Z" transform="translate(5.99 -23.56)"/><polygon class="cls-5" points="419.39 375.78 406.69 375.78 408.29 379.98 419.39 379.98 419.39 375.78"/><polygon class="cls-5" points="384.49 377.18 371.79 377.18 371.79 376.88 366.69 383.38 382.89 390.88 384.49 379.98 384.49 377.18"/><path class="cls-3" d="M393.3,134.44c-1.6,0-3,2-3,4.4s1.3,4.4,3,4.4,3-2,3-4.4S395,134.44,393.3,134.44Z" transform="translate(5.99 -23.56)"/><path class="cls-3" d="M368.9,134.44c1.6,0,3,2,3,4.4s-1.3,4.4-3,4.4-3-2-3-4.4S367.3,134.44,368.9,134.44Z" transform="translate(5.99 -23.56)"/><path class="cls-7" d="M372.5,152.44a1.1,1.1,0,1,1,1.1-1.9,13.27,13.27,0,0,0,13.6,0,1.1,1.1,0,0,1,1.1,1.9,15.76,15.76,0,0,1-7.9,2.2A16,16,0,0,1,372.5,152.44Z" transform="translate(5.99 -23.56)"/><path class="cls-25" d="M409.6,132.24l1.7-7.8a29.12,29.12,0,0,0,.4-10.6h0c-.7-5-7-8.9-12-9.5h0l-1-1.3a20.94,20.94,0,0,0-20-7.4l-6.1,1.1c-6.9,1.2-11.6,6.1-13.9,12.8h0a27.52,27.52,0,0,0-.5,17.7l.5,5.3.2,9.7a9.88,9.88,0,0,0,1.5,5.3h0l3.3-24,32-5.8,5.9-1.7,4.4,31.5h0a7.1,7.1,0,0,0,1.5-4.4Z" transform="translate(5.99 -23.56)"/><path class="cls-25" d="M398.3,130.34v-1A1.32,1.32,0,0,0,397,128h-8.3a1.32,1.32,0,0,0-1.3,1.3v1a1.32,1.32,0,0,0,1.3,1.3H397A1.32,1.32,0,0,0,398.3,130.34Z" transform="translate(5.99 -23.56)"/><path class="cls-25" d="M376,130.34v-1a1.32,1.32,0,0,0-1.3-1.3l-8.7-.1a1.32,1.32,0,0,0-1.3,1.3v1a1.32,1.32,0,0,0,1.3,1.3l8.7.1A1.32,1.32,0,0,0,376,130.34Z" transform="translate(5.99 -23.56)"/><polygon class="cls-17" points="404.19 388.68 408.29 377.48 419.39 377.48 426.89 388.38 426.89 395.28 404.19 395.28 404.19 388.68"/><polygon class="cls-17" points="343.69 388.68 369.39 378.68 381.49 384.08 384.49 379.98 384.49 395.28 343.69 395.28 343.69 388.68"/></svg>