<?xml version="1.0" encoding="utf-8"?>
<!-- Generator: Adobe Illustrator 22.1.0, SVG Export Plug-In . SVG Version: 6.00 Build 0)  -->
<svg version="1.1" id="_" xmlns="http://www.w3.org/2000/svg" xmlns:xlink="http://www.w3.org/1999/xlink" x="0px" y="0px"
	 viewBox="0 0 657.6 395.3" style="enable-background:new 0 0 657.6 395.3;" xml:space="preserve">
<style type="text/css">
	.st0{fill:#EB7553;}
	.st1{fill:#A94644;}
	.st2{fill:#8D453B;}
	.st3{fill:#7E2627;}
	.st4{fill:#FFC182;}
	.st5{fill:#A2C0D9;}
	.st6{fill:#E19F68;}
	.st7{fill:#4E5057;}
	.st8{fill:#FFFFFF;}
	.st9{fill:#A24E41;}
	.st10{fill:#693132;}
	.st11{fill:#C56D48;}
	.st12{fill:#74A798;}
	.st13{fill:#3E3642;}
	.st14{fill:#349989;}
	.st15{fill:#0C6361;}
	.st16{fill:#934016;}
	.st17{fill:#E09036;}
	.st18{fill:#C57036;}
	.st19{fill:#9C5647;}
</style>
<title>standup</title>
<path class="st0" d="M14.6,155.9H43V83.6l-14.2,2c-14.8,2.1-26,14.3-27,29.2L0,140.3c-0.6,8.1,5.5,15,13.6,15.6
	C14,155.9,14.3,155.9,14.6,155.9z"/>
<path class="st1" d="M28.8,85.6c-1.8,0.3-3.7,0.7-5.4,1.3c-3.5,7.3-7.7,14.4-9.9,22.3c-2,7.3-2.7,15-2,22.6c0.5,6.4,2.1,13.5,5.6,19
	c1.2,2,2.8,3.7,4.6,5.1H43V83.5L28.8,85.6z"/>
<path class="st2" d="M48.3,36c-0.2,0-0.4-0.1-0.6-0.2c-3.3-1.8-7.1-2.5-10.9-2.1c-0.7-0.1-1.1-0.6-1.1-1.3c0-0.5,0.4-0.9,0.9-1.1
	c4.2-0.5,8.5,0.3,12.2,2.4c0.6,0.3,0.8,1,0.5,1.6C49.2,35.8,48.8,36,48.3,36L48.3,36z"/>
<path class="st2" d="M61.2,36c-0.7,0-1.2-0.5-1.2-1.2c0-0.4,0.2-0.8,0.6-1c3.7-2,8-2.8,12.2-2.4c0.7,0.1,1.1,0.6,1.1,1.3
	c0,0.6-0.6,1.1-1.2,1.1c0,0,0,0,0,0c-3.8-0.5-7.6,0.3-10.9,2.1C61.6,36,61.4,36,61.2,36z"/>
<polygon class="st3" points="31.5,81 75.7,88.4 77.3,52.2 75.7,20 29.2,14.6 28.4,49.9 "/>
<path class="st4" d="M71.7,194.4l5.9,0.7c2.4,0.3,4.7-1.3,5.2-3.7l0.4-2c0.7-3.5,0.4-7.1-1.1-10.4l-0.2-0.5v-70.2H67.8L71.7,194.4z"
	/>
<path class="st4" d="M32.7,168.8L32.7,168.8c1.5-12,5.3-23.7,11.1-34.3l1-1.9l-0.3-9.8l-11.3-18l-1.3,7.8l-11.3-1.9l0.8-14.9
	c0.5-7.6,5.9-14,13.3-15.7l12.4-5l12.8,0.3l13.9,7.8c3.2,1.3,5.3,4.4,5.4,7.8l0.1,3.1l2.6,7.9c0.8,2.3,0.5,4.9-0.8,7l-6.1,10
	l1.1,24.2l0.4,25.7H32.7z"/>
<path class="st5" d="M43.6,132.4c-0.2-6.1-2.1-12-5.4-17l-4.4-6.6l-0.8,5.2l-13.6-2.3l0.9-16c0.5-8.2,6.2-15,14.2-16.9l9-2.1
	l1.4,6.2c1.9,8.4,9.4,14.3,18,14.3l0,0c4.5,0,8.1-3.6,8.1-8.1c0-1-0.2-1.9-0.5-2.9l-2.6-6.8l6.4,2.6c3.6,1.5,6,5,6.2,8.9l0.1,2.9
	l2.5,7.7c0.9,2.7,0.5,5.6-0.9,8l-5.9,9.6l1.1,23.8l0.4,27H32.5c0.9-13,4.5-25.6,10.7-37.1L43.6,132.4z"/>
<path class="st4" d="M46.8,79.4c7.7,7.7,13.2,11.1,14.1,4.6V66.6h-14L46.8,79.4z"/>
<path class="st6" d="M60.9,78.2V65.4h-14v9.2C50.9,77.6,55.9,78.9,60.9,78.2z"/>
<path class="st4" d="M38.1,43.4c-0.8-4.4-3.8-7.5-6.7-7c-3,0.5-4.7,4.5-4,8.8s3.8,7.5,6.8,7S38.9,47.7,38.1,43.4z"/>
<path class="st4" d="M55,69.8L55,69.8c12.3,0,22.3-9.9,22.4-22.3c0,0,0-0.1,0-0.1V18.6H32.7v28.8C32.7,59.8,42.7,69.8,55,69.8z"/>
<polygon class="st7" points="28.8,293.1 38.8,293.1 51.2,190.2 56.4,190.8 50.2,293.1 60.6,293.1 76.5,191.2 77.8,170 32.5,170 
	32.7,227.9 29.7,247 "/>
<path class="st4" d="M23,194.4h6.1l0.5-5.6c0.2-2.9-0.8-5.7-2.9-7.7l-1.4-1.3l6.3-66.1L20.3,112L19,144.7l-1.6,44
	c-0.1,3,2.3,5.6,5.3,5.7C22.8,194.4,22.9,194.4,23,194.4z"/>
<polygon class="st4" points="28.8,301.1 38.5,301.1 38.8,293.1 28.8,293.1 "/>
<polygon class="st4" points="50.7,301.1 52.3,311.9 68.1,304.5 63.1,298.1 60.7,293.1 50.7,293.1 "/>
<path class="st2" d="M41.1,42.4c0,2.4,1.3,4.3,3,4.3s3-1.9,3-4.3s-1.3-4.3-3-4.3S41.1,40.1,41.1,42.4z"/>
<path class="st2" d="M70.8,42.4c0,2.4-1.3,4.3-3,4.3s-3-1.9-3-4.3s1.3-4.3,3-4.3S70.8,40.1,70.8,42.4z"/>
<path class="st8" d="M48.6,51H64l0,0v0.1c0,4.1-3.4,7.5-7.5,7.5h-0.4c-4.1,0-7.5-3.4-7.5-7.5L48.6,51L48.6,51z"/>
<path class="st9" d="M16.6,103.7c0.8,1.9,1.6,3.8,1.6,5.2c0.1-6.8,1.8-13.5,4.8-19.6c1.1-2.4,2.7-4.6,4.6-6.4c1.4-1.2,3-2.1,4.4-3.4
	c7.6-6.8,5.4-19.1,4.9-28.1c-0.4-10.4,0.1-20.9,1.4-31.3l14.4,5.6l23.5,7.4l1.2,11.7l2.2-17.1c0-14.2-4.9-26.2-17.7-27.8h-7
	c-7.7-0.3-14.9,3.3-19.3,9.6C28.2,9.6,22.1,15.6,22,23c-0.3,15.6,0.7,32.5-3,47.7c-1.5,6.3-3.1,12-4,18.4c-0.5,3.5-0.5,7,0.1,10.5
	C15.4,101,15.9,102.4,16.6,103.7z"/>
<path class="st10" d="M41.3,317.4H21.5v-6.7c0-0.8,0.2-1.6,0.7-2.2l6.6-9.7h9.6l2.7,10.5c0.1,0.3,0.1,0.7,0.1,1V317.4z"/>
<path class="st10" d="M84.5,317.4H50.7v-16.2l1.9,1c2.2,1.1,4.8,1.2,7.2,0.2l5.7-2.4l16.8,8.7c1.3,0.7,2.1,2,2.2,3.5V317.4z"/>
<rect x="21.5" y="312" class="st8" width="19.8" height="5.3"/>
<rect x="50.7" y="312" class="st8" width="33.8" height="5.3"/>
<path class="st2" d="M73.3,34.6c-0.6-1.6-1.9-2.9-3.6-3.4c-1.9-0.4-3.8,0.2-5.2,1.6c-0.9,1.2,0.7,2.9,1.7,1.7
	c0.9-0.9,2.2-1.3,3.4-1.2c1.2,0.2,2,1.2,2.9,1.8C73,35.4,73.5,35,73.3,34.6z"/>
<path class="st2" d="M38.7,34.6c0.6-1.6,1.9-2.9,3.6-3.4c1.9-0.4,3.8,0.2,5.2,1.6c0.9,1.2-0.7,2.9-1.7,1.7c-0.9-0.9-2.2-1.3-3.4-1.2
	c-1.2,0.2-2,1.2-2.9,1.8C39,35.4,38.5,35,38.7,34.6z"/>
<path class="st0" d="M31.9,150.8H36c12-24.5,21.5-49,6.8-74l-10.9,1.3C45.2,106.7,41.1,130.1,31.9,150.8z"/>
<path class="st0" d="M77.2,148.8c6.4-24.9,4.1-56.8-1.5-67.9l-9.4-2.4C78.1,107.5,77.2,148.8,77.2,148.8z"/>
<path class="st2" d="M616.4,36c0.2,0,0.4-0.1,0.6-0.2c3.3-1.8,7.1-2.5,10.9-2.1c0.7,0,1.2-0.5,1.2-1.2c0-0.6-0.4-1.1-1-1.2
	c-4.2-0.5-8.5,0.3-12.2,2.4c-0.6,0.3-0.8,1-0.5,1.6C615.6,35.8,616,36,616.4,36L616.4,36z"/>
<path class="st2" d="M603.6,36c0.7,0,1.2-0.5,1.2-1.2c0-0.4-0.2-0.8-0.6-1c-3.7-2-8-2.8-12.2-2.4c-0.7,0.1-1.1,0.6-1.1,1.3
	c0,0.6,0.6,1.1,1.2,1.1c0,0,0,0,0,0c3.7-0.5,7.5,0.2,10.8,2C603.2,35.9,603.4,36,603.6,36z"/>
<polygon class="st11" points="633.3,81 589.1,88.4 587.4,52.2 589.1,20 635.5,14.6 636.4,49.9 "/>
<path class="st4" d="M593.1,194.4l-5.9,0.7c-2.4,0.3-4.7-1.3-5.2-3.7l-0.4-2c-0.7-3.5-0.4-7.1,1.1-10.4l0.2-0.5v-70.2H597
	L593.1,194.4z"/>
<path class="st4" d="M632.1,168.8L632.1,168.8c-1.6-12-5.3-23.7-11.1-34.3l-1-1.9l0.3-9.8l11.3-18l4.7,5.2l7.9,0.6l-0.8-14.9
	c-0.4-7.6-5.8-14.1-13.2-15.8l-12.4-2.9L605,77.3L591.1,83c-3.2,1.3-5.3,4.4-5.4,7.8l-0.1,3.1l-2.6,7.9c-0.8,2.3-0.5,4.9,0.8,7
	l6.1,10l-1.1,24.2l-0.4,25.7L632.1,168.8z"/>
<path class="st6" d="M599.8,100c-0.2,0-0.3,0-0.5-0.1c-0.6-0.3-0.9-1-0.7-1.6l4.1-9.8c0.3-0.6,1-0.9,1.6-0.7c0.6,0.3,0.9,1,0.7,1.6
	l0,0l-4.1,9.8C600.8,99.7,600.3,100,599.8,100z"/>
<path class="st10" d="M621.2,132.4c0.2-6.1,2.1-12,5.4-17l4.4-6.6l3.6,4.2l17.1-3.1L646,92.6c-2.3-6.9-8-12.1-15-13.7l-9.4-2.2
	l-2.8,12c-1.2,5-5.6,8.5-10.8,8.5h-12.9c-1.9,0-3.4-1.5-3.4-3.3c0-0.4,0.1-0.8,0.2-1.2l5.1-13.3l-6.4,2.6c-3.6,1.5-6,5-6.2,8.9
	l-0.1,2.9l-2.6,7.7c-0.9,2.7-0.6,5.6,0.9,8l5.9,9.6l-1.1,23.8l-0.4,27h45.3c-0.9-13-4.5-25.6-10.7-37.1L621.2,132.4z"/>
<path class="st4" d="M618,79.4c-7.7,7.7-13.2,11.1-14,4.6V66.6h14V79.4z"/>
<path class="st6" d="M603.9,78.2V65.4h14v9.2C613.9,77.6,608.9,78.9,603.9,78.2z"/>
<path class="st4" d="M582.1,45.3c0.8,4.4,3.8,7.5,6.7,7s4.7-4.5,4-8.8s-3.8-7.5-6.7-7C583.1,36.9,581.3,40.9,582.1,45.3z"/>
<path class="st4" d="M626.7,43.4c0.8-4.4,3.8-7.5,6.8-7c3,0.5,4.7,4.5,4,8.8s-3.8,7.5-6.8,7S625.9,47.7,626.7,43.4z"/>
<path class="st4" d="M609.7,69.8L609.7,69.8c-12.3,0-22.3-10-22.3-22.3c0,0,0,0,0,0V18.6H632v28.8C632.1,59.8,622.1,69.8,609.7,69.8
	C609.8,69.8,609.7,69.8,609.7,69.8z"/>
<polygon class="st12" points="624.6,293.1 614.6,293.1 612.4,190.2 609.5,190.8 569.1,293.1 558.7,293.1 588.2,185.5 587,170 
	632.2,170 628.6,234.7 629.4,251.6 "/>
<polygon class="st4" points="648.3,128.2 640.4,112 651.1,110 657.6,129.5 "/>
<polygon class="st4" points="624.6,301.1 614.9,301.1 614.6,293.1 624.6,293.1 "/>
<polygon class="st4" points="568.6,301.1 567,311.9 551.2,304.5 556.2,298.1 558.6,293.1 568.6,293.1 "/>
<path class="st2" d="M622.2,42.4c-0.4,2.4-2.1,4.3-3.8,4.3s-2.6-1.9-2.2-4.3s2.1-4.3,3.8-4.3S622.6,40.1,622.2,42.4z"/>
<path class="st2" d="M592.4,42.4c-0.4,2.4,0.5,4.3,2.2,4.3s3.3-1.9,3.8-4.3s-0.5-4.3-2.2-4.3S592.9,40.1,592.4,42.4z"/>
<path class="st0" d="M623.9,94.5l0.4-2.5c4.2-23.7,4.9-47.9,2.1-71.9l0,0l-14.4,5.6l-23.5,7.4l-1.2,11.7l-1.4-2.4l-1.4-6.1l0,0
	c-4.2-8.7-3.9-18.9,0.8-27.4l0,0c2.7-5,7.9-8.2,13.6-8.4l11-0.5c7.7-0.3,14.9,3.3,19.3,9.6l0,0c7.4,0,13.4,5.9,13.6,13.3l0.7,34.7
	l0.2,16.6c0.1,7.7-4.6,14.6-11.8,17.3L623.9,94.5z"/>
<path class="st10" d="M612.1,317.4h19.8v-6.7c0-0.8-0.2-1.6-0.7-2.2l-6.7-9.7h-9.6l-2.7,10.5c-0.1,0.3-0.1,0.7-0.1,1V317.4z"/>
<path class="st10" d="M534.8,317.4h33.8v-16.2l-1.9,1c-2.2,1.1-4.8,1.2-7.2,0.2l-5.8-2.4l-16.8,8.7c-1.3,0.7-2.1,2-2.1,3.5
	L534.8,317.4z"/>
<rect x="612.1" y="312" class="st10" width="19.8" height="5.3"/>
<rect x="534.8" y="312" class="st10" width="33.8" height="5.3"/>
<path class="st2" d="M591.5,34.6c0.6-1.6,1.9-2.9,3.5-3.4c1.9-0.4,3.8,0.2,5.2,1.6c0.9,1.2-0.7,2.9-1.7,1.7
	c-0.9-0.9-2.2-1.3-3.4-1.2c-1.2,0.2-2,1.2-2.9,1.8C591.8,35.4,591.3,35,591.5,34.6z"/>
<path class="st2" d="M626.1,34.6c-0.6-1.6-1.9-2.9-3.5-3.4c-1.9-0.4-3.8,0.2-5.2,1.6c-0.9,1.2,0.7,2.9,1.7,1.7
	c0.9-0.9,2.2-1.3,3.4-1.2c1.2,0.2,2,1.2,2.9,1.8C625.7,35.4,626.3,35,626.1,34.6z"/>
<path class="st6" d="M603.7,54.6c2.3-1.2,5.1,0.2,6.5,2.1c0.8,1-1,2-1.7,1c-1.1-1.5-2.7-1.8-4.4-1.9c-0.4,0-0.7-0.2-0.7-0.6
	C603.3,55,603.5,54.7,603.7,54.6z"/>
<polygon class="st4" points="651.1,122.4 625.7,148.5 629.5,152.6 657.6,129.5 "/>
<ellipse transform="matrix(0.8208 -0.5713 0.5713 0.8208 28.3512 382.3001)" class="st4" cx="623.4" cy="146" rx="6.6" ry="9.6"/>
<path class="st13" d="M184.3,220h-33.8v-86.2l16.9,2.4c17.6,2.5,31.1,17,32.3,34.8l2.1,30.4c0.7,9.6-6.6,17.9-16.2,18.6
	C185.1,219.9,184.7,220,184.3,220z"/>
<path class="st2" d="M151.7,81c0.2,0,0.4-0.1,0.6-0.2c3.3-1.8,7.1-2.5,10.9-2.1c0.6,0.1,1.2-0.4,1.3-1.1c0,0,0,0,0,0
	c0-0.7-0.4-1.2-1.1-1.3c-4.2-0.5-8.5,0.3-12.2,2.4c-0.6,0.3-0.8,1.1-0.4,1.6C150.9,80.7,151.2,81,151.7,81L151.7,81z"/>
<path class="st2" d="M138.8,81c0.7,0,1.2-0.5,1.2-1.2c0-0.4-0.2-0.8-0.6-1c-3.7-2-8-2.8-12.2-2.3c-0.6,0.1-1.1,0.6-1.1,1.3
	c0,0.6,0.6,1.1,1.2,1.1c0,0,0,0,0,0c3.8-0.5,7.6,0.3,10.9,2.1C138.4,81,138.6,81,138.8,81z"/>
<path class="st4" d="M115.8,250.8l-4.4,0.5c-1.7,0.2-3.3-0.9-3.6-2.6l-0.8-3.8c-0.7-3.2-0.3-6.4,1-9.4l0.4-1v-70.1h14.1l-3.7,83.3
	C118.6,249.2,117.4,250.6,115.8,250.8z"/>
<path class="st14" d="M168.7,222.3h-53.8l-1.2-55.4l-7.3-0.8l0.9-19.1c0.3-5.4,3.8-10.2,8.9-12l11.6-4.1l1.7-5.5l10.6-4.2l18.7,0.4
	l3.1,6.6l15.4,4c4.9,1.3,8.6,5.4,9.3,10.4l2.9,21.5l-21,2.4l0.4-5.2V222.3z"/>
<polygon class="st4" points="156.1,121.3 145.5,123.8 140,136.4 136.2,136.4 136.3,111.6 156.1,111.6 "/>
<path class="st6" d="M136.3,120.8v-9.2H156v5.5C149.9,120.2,143.1,121.5,136.3,120.8z"/>
<path class="st4" d="M147.1,116.5l-9.6-2.2c-9.4-2.1-15.2-11.5-13.1-20.8c0,0,0,0,0,0l7.5-32.9l0,0l43.5,10l0,0l-7.5,32.9
	C165.8,112.8,156.4,118.6,147.1,116.5z"/>
<polygon class="st10" points="174.8,345.4 159.9,345.4 142.7,252.3 140,248 138.7,345.4 123.4,345.4 114.9,252.1 114.9,222.3 
	168.7,222.3 169.7,280.2 172.8,299.4 "/>
<path class="st4" d="M187.1,246.8h-11c-1.5,0-2.8-1.2-2.9-2.7l-0.4-4.5c-0.2-1.8,0.5-3.7,1.9-4.9l2.6-2.5L171,166l16.1-1.7l1.2,32.7
	l1.7,46.7c0.1,1.6-1.2,2.9-2.8,3C187.2,246.7,187.1,246.7,187.1,246.8z"/>
<polygon class="st4" points="172.4,353.5 161.5,353.5 159.9,345.4 172.4,345.4 "/>
<polygon class="st4" points="138.3,353.5 125.8,362.3 120.8,356.8 125.8,350.4 125.8,345.4 138.3,345.4 "/>
<path class="st4" d="M119.6,85c-0.2,4.4,2,8.1,5,8.3s5.6-3.3,5.8-7.8s-2-8.1-5-8.3S119.8,80.6,119.6,85z"/>
<path class="st4" d="M165.9,93.7c1.7-4.1,5.4-6.4,8.1-5.3s3.6,5.4,1.9,9.5s-5.4,6.4-8.1,5.3S164.2,97.7,165.9,93.7z"/>
<path class="st2" d="M161.4,90.2c-0.4,2.3-2.1,4-3.7,3.7s-2.6-2.4-2.1-4.7s2.1-4,3.7-3.7S161.8,87.9,161.4,90.2z"/>
<path class="st2" d="M132.1,84.7c-0.4,2.3,0.5,4.4,2.1,4.8s3.3-1.3,3.7-3.7s-0.5-4.4-2.1-4.8S132.6,82.4,132.1,84.7z"/>
<path class="st3" d="M168.2,102L168.2,102l2.2-27.3l-7.2,0.4c-4.4,0.2-8.8-0.2-13-1.2l0,0c-2.8-0.9-5.1-3.1-6-5.9l0,0l-2.4,0.9
	c-2.8,1-5.7,1.4-8.7,1l0,0L124.7,92l-0.5-0.7c-1-1.4-1.4-3.2-1-4.9l2.2-10.2l-1.7-3.7c-1.6-3.6-2.3-7.6-1.9-11.6l0.3-3.6
	c0.3-3.5,3.3-6.2,6.9-6.2l6.7,0.1l0,0c0.4-4.1,4-7.2,8.1-6.9l7.4,0.4l0,0c1.4-2.5,4.6-3.3,7-1.9c0.5,0.3,0.9,0.6,1.2,1l14.4,16
	c3.8,4.2,4.9,10.2,2.9,15.6l-0.4,1.1l-4.4,21C171.5,99.5,170.1,101.2,168.2,102z"/>
<path class="st3" d="M164.8,84.8l-6.9-0.8c-0.8-0.1-1.3-0.8-1.3-1.6l0.1-0.7c0.1-0.8,0.8-1.3,1.6-1.3l6.9,0.8
	c0.8,0.1,1.3,0.8,1.3,1.6l-0.1,0.7C166.3,84.3,165.6,84.9,164.8,84.8z"/>
<path class="st3" d="M143.8,76.5l-8.2-1c-0.8-0.1-1.3-0.8-1.2-1.6l0.1-0.7c0.1-0.8,0.8-1.3,1.6-1.2l8.2,1c0.8,0.1,1.3,0.8,1.2,1.6
	l-0.1,0.7C145.3,76,144.6,76.6,143.8,76.5z"/>
<rect x="136.2" y="136.4" class="st8" width="3.8" height="23.3"/>
<path class="st10" d="M159.6,368.4h17.9c1.2,0,2.1-1,2.1-2.1l0,0v-0.9c0-2.3-0.9-4.6-2.4-6.4l-4.9-5.6h-10.9l-3.1,6.6
	c-0.6,1.3-0.9,2.7-0.9,4.1v2.1C157.5,367.5,158.4,368.4,159.6,368.4C159.6,368.4,159.6,368.4,159.6,368.4z"/>
<path class="st10" d="M100.8,368.4H135c1.8,0,3.3-1.5,3.3-3.3v-11.7l-11.6,7.5l-3.2-7.5l-23.6,10.4c-0.9,0.4-1.4,1.2-1.4,2.2l0,0
	C98.4,367.4,99.5,368.4,100.8,368.4C100.8,368.4,100.8,368.4,100.8,368.4z"/>
<polygon class="st15" points="142.6,136.4 146.1,127.9 149.9,138.7 "/>
<polygon class="st15" points="134.7,136.4 131.3,127.4 128.6,135.5 "/>
<path class="st13" d="M172.5,202.1h-4.1c-12-24.5-21.5-49-6.8-74l10.9,1.3C159.3,158,163.4,181.4,172.5,202.1z"/>
<path class="st13" d="M114.4,199.8c-5.2-25.1-4.6-57.1,1.5-67.9l12.7-1.8C115.3,158.5,114.4,199.8,114.4,199.8z"/>
<path class="st6" d="M137.4,100c2.2,0,4.5,0.2,6.7,0.7c2.3,0.4,4.8,0.6,7.1,1.2c0.5,0.1,0.7,0.6,0.6,1.1c-0.1,0.4-0.4,0.6-0.8,0.6
	c-2.1,0.1-4.3-0.2-6.4-0.8c-2.5-0.4-5-1.1-7.4-2.1c-0.2-0.1-0.2-0.4-0.1-0.5C137.1,100,137.2,100,137.4,100z"/>
<path class="st2" d="M494.6,82.9c-0.2,0-0.4-0.1-0.6-0.2c-3.4-1.9-7.3-2.6-11.2-2.1c-0.7,0-1.2-0.5-1.3-1.2c0-0.6,0.4-1.2,1.1-1.2
	c4.3-0.5,8.7,0.3,12.6,2.4c0.6,0.3,0.8,1.1,0.5,1.7C495.4,82.7,495,82.9,494.6,82.9z"/>
<path class="st2" d="M507.8,82.9c-0.4,0-0.8-0.2-1.1-0.6c-0.3-0.6-0.1-1.3,0.4-1.7c0,0,0,0,0,0c3.8-2.1,8.2-2.9,12.6-2.4
	c0.7,0.1,1.1,0.7,1.1,1.4c-0.1,0.6-0.6,1.1-1.2,1.1c-3.9-0.5-7.8,0.3-11.2,2.1C508.2,82.9,508,82.9,507.8,82.9z"/>
<polygon class="st16" points="470,112.6 527.6,121.9 526.5,99.7 525.6,69.7 476,63 470.7,84.9 "/>
<path class="st4" d="M518.5,245.8l6.1,0.7c2.5,0.3,4.8-1.4,5.3-3.8l0.4-2c0.8-3.6,0.4-7.3-1.1-10.7l-0.2-0.5v-72.2h-14.5
	L518.5,245.8z"/>
<path class="st4" d="M478.5,219.4L478.5,219.4c1.6-12.3,5.5-24.3,11.4-35.2l1-2l-0.3-10.1L479,153.7l-1.3,8l-11.7-2l0.8-15.4
	c0.4-7.8,6-14.4,13.6-16.2l12.8-3l13.1,0.4l14.3,5.9c3.3,1.3,5.5,4.5,5.6,8l0.1,3.2l2.7,8.1c0.8,2.4,0.5,5.1-0.8,7.2l-6.3,10.2
	l1.2,24.9l0.4,26.4L478.5,219.4z"/>
<path class="st17" d="M478.3,220.7h46.5l-0.4-27.8l-1.1-24.5l6-9.9c1.5-2.5,1.9-5.5,1-8.3l-2.6-7.9l-0.1-3c-0.1-4-2.6-7.6-6.4-9.1
	l-14.5-6l-13.5-0.4l-12.9,3c-8.2,1.9-14.1,9-14.6,17.4l-0.9,16.5l14,2.4l0.9-5.3l4.5,6.8c3.5,5.2,5.4,11.2,5.6,17.4l0,0l-0.3,0.6
	C483,194.3,479.2,207.3,478.3,220.7L478.3,220.7z"/>
<path class="st4" d="M493,127.6c7.9,8,13.6,11.4,14.5,4.7v-17.9H493V127.6z"/>
<path class="st6" d="M507.4,126.4v-13.2H493v9.4C497.2,125.6,502.3,127,507.4,126.4z"/>
<path class="st4" d="M529.9,92.4c-0.8,4.5-3.9,7.7-6.9,7.2s-4.9-4.6-4.1-9.1s3.9-7.7,6.9-7.2S530.7,87.9,529.9,92.4z"/>
<path class="st4" d="M484,90.4c-0.8-4.5-3.9-7.7-6.9-7.2s-4.9,4.6-4.1,9.1s3.9,7.7,6.9,7.2S484.8,95,484,90.4z"/>
<path class="st4" d="M478.5,65.1h45.9l0,0v29.7c0,12.7-10.3,23-23,23l0,0l0,0c-12.7,0-23-10.3-23-23V65.1H478.5z"/>
<polygon class="st14" points="474.5,347.3 484.8,347.3 500,241.5 502.8,240.8 496.5,347.3 507.2,347.3 523.6,242.5 524.8,220.7 
	478.3,220.7 478.5,280.2 475.4,299.9 "/>
<path class="st4" d="M468.5,245.8h6.3l0.5-5.8c0.3-3-0.8-5.9-3-7.9l-1.5-1.4l6.5-68l-11.5-1.7l-1.3,33.6l-1.7,45.3
	c-0.1,3.1,2.3,5.8,5.4,5.9C468.3,245.8,468.4,245.8,468.5,245.8z"/>
<polygon class="st4" points="474.5,355.6 484.4,355.6 484.8,347.3 474.5,347.3 "/>
<polygon class="st4" points="497,355.6 498.6,366.6 514.9,359 509.8,352.4 507.3,347.3 497,347.3 "/>
<ellipse class="st2" cx="488.9" cy="89.6" rx="3" ry="4.4"/>
<ellipse class="st2" cx="513.4" cy="89.6" rx="3" ry="4.4"/>
<path class="st18" d="M476,123.8l3-24.2l5.2-33l14.8,5.7l24.2,7.6l1.2,12l1.5-2.4l1.5-6.3l0.4-0.8c4-8.4,3.8-18.3-0.7-26.5l0,0
	c-3.1-5.6-8.9-9.3-15.3-9.5l-10.4-0.4c-7.9-0.3-15.4,3.4-19.8,9.9l0,0c-3.9,0-7.5,2.4-9,6l0,0c-5.7,13.9-8.4,28.8-8,43.8l0,0
	c0.1,4.8,2.2,9.3,5.6,12.6L476,123.8z"/>
<polygon class="st1" points="487.3,368.5 467,368.5 467,364 474.5,353 484.4,353 487.3,364.4 "/>
<path class="st1" d="M531.8,368.4H497v-12.9l1.7,0.9c2.5,1.3,5.4,1.3,7.9,0.3l5.6-2.4l19.5,10.1L531.8,368.4z"/>
<path class="st18" d="M519,81.5c-0.6-1.7-2-2.9-3.6-3.5c-1.9-0.4-3.9,0.2-5.3,1.6c-1,1.2,0.7,3,1.8,1.8c0.9-0.9,2.2-1.3,3.5-1.2
	c1.2,0.2,2,1.3,3,1.9C518.6,82.3,519.1,81.9,519,81.5z"/>
<path class="st18" d="M483.4,81.5c0.6-1.7,2-2.9,3.6-3.5c1.9-0.4,3.9,0.2,5.3,1.6c1,1.2-0.7,3-1.8,1.8c-0.9-0.9-2.2-1.3-3.5-1.2
	c-1.2,0.2-2,1.3-3,1.9C483.8,82.3,483.2,81.9,483.4,81.5z"/>
<path class="st18" d="M508.8,98.6c-1.3,1.3-3,2.3-4.9,2.7c-1.1,0.2-2.3,0.1-3.4-0.2c-0.8-0.2-1.1-0.5-1.8-0.2
	c-0.2,0.1-0.3,0.3-0.3,0.5c0.6,1.8,3.8,1.7,5.3,1.5c2.4-0.3,4.5-1.6,5.8-3.6c0.1-0.3,0-0.5-0.2-0.7
	C509.1,98.4,508.9,98.4,508.8,98.6z"/>
<rect x="475.4" y="241.2" class="st10" width="3.8" height="19.9"/>
<path class="st10" d="M476.5,238.7h-1.2l-0.3,3.7h4.1v-1.3C479,239.8,477.9,238.7,476.5,238.7z"/>
<path class="st10" d="M462.8,238.7h-2.3c-1.3,0-2.4,1.1-2.4,2.5c0,0,0,0,0,0.1v1.2h5.2C462.9,241.8,462.7,240.5,462.8,238.7z"/>
<path class="st10" d="M454.7,285.3l28.9,2.4c2.6,0.2,4.9-1.7,5.1-4.3c0-0.3,0-0.5,0-0.8l-2.5-27.3c-0.2-2.3-2.1-4-4.4-4h-22
	c-3,0-5.6,2.1-6.2,5l-4.6,21.5c-0.7,3.4,1.5,6.8,4.9,7.5C454.1,285.2,454.4,285.3,454.7,285.3z"/>
<path class="st19" d="M477.4,287.2l6.1,0.5c2.6,0.2,4.9-1.7,5.1-4.3c0-0.3,0-0.5,0-0.8l-2.5-27.3c-0.2-2.3-2.1-4-4.4-4h-6.6
	C479.2,251.2,481.4,287.2,477.4,287.2z"/>
<rect x="458.1" y="241.2" class="st10" width="4.2" height="19.9"/>
<path class="st17" d="M471.6,261.1h0.1c1.6,0,2.8,1.3,2.8,2.8v2.7c0,1.6-1.3,2.8-2.8,2.8h-0.1c-1.6,0-2.8-1.3-2.8-2.8V264
	C468.8,262.4,470,261.1,471.6,261.1z"/>
<path class="st17" d="M456.9,261.1h0.1c1.6,0,2.8,1.3,2.8,2.8v2.7c0,1.6-1.3,2.8-2.8,2.8h-0.1c-1.6,0-2.8-1.3-2.8-2.8V264
	C454.1,262.4,455.3,261.1,456.9,261.1z"/>
</svg>
