<svg xmlns="http://www.w3.org/2000/svg" xmlns:xlink="http://www.w3.org/1999/xlink" viewBox="0 0 1300 1299.73"><defs><clipPath id="clip-path" transform="translate(200 199.73)"><rect width="900" height="900" style="fill:#d91e01"/></clipPath><radialGradient id="radial-gradient" cx="630.42" cy="654.62" fx="894.928776405306" fy="597.5686217205152" r="681.34" gradientUnits="userSpaceOnUse"><stop offset="0" stop-color="#ff0"/><stop offset="0.16" stop-color="#e3dc00"/><stop offset="0.52" stop-color="#9c8300"/><stop offset="0.91" stop-color="#481b00"/></radialGradient></defs><title>bg</title><g style="isolation:isolate"><g id="Layer_1" data-name="Layer 1"><rect x="200" y="199.73" width="900" height="900" style="fill:#d91e01"/><g style="clip-path:url(#clip-path)"><path d="M450.05,1100c-8,0-16-.15-23.86-.43L478,450c4.68.17-4.75.15,0,0l-6.69,649.66C464.3,1099.88,457.13,1100,450.05,1100Z" transform="translate(200 199.73)" style="fill:#d01b00"/><path d="M516.53,1096.62,478,450c4.62-.47-4.55.79,0,0l83.5,640.44C546.69,1093,531.54,1095.09,516.53,1096.62Z" transform="translate(200 199.73)" style="fill:#d01b00"/><path d="M381,1096.36c-15-1.59-30.15-3.73-45-6.36L478,450c4.55.81-4.63-.49,0,0Z" transform="translate(200 199.73)" style="fill:#d01b00"/><path d="M606.1,1081.08,478,450c4.48-1.11-4.37,1.41,0,0L649.9,1068.62C635.52,1073.26,620.78,1077.46,606.1,1081.08Z" transform="translate(200 199.73)" style="fill:#d01b00"/><path d="M291.52,1080.49c-14.67-3.68-29.4-7.93-43.78-12.64L478,450c4.37,1.43-4.46-1.12,0,0Z" transform="translate(200 199.73)" style="fill:#d01b00"/><path d="M692.73,1053.1,478,450c4.28-1.72-4.15,2,0,0l256.22,584.66C720.69,1041.26,706.72,1047.47,692.73,1053.1Z" transform="translate(200 199.73)" style="fill:#d01b00"/><path d="M204.93,1052.15c-14-5.7-28-12-41.55-18.65L478,450c4.16,2-4.27-1.74,0,0Z" transform="translate(200 199.73)" style="fill:#d01b00"/><path d="M774.4,1013.35,478,450c4-2.32-3.85,2.6,0,0L812.91,989.31C800.41,997.73,787.45,1005.82,774.4,1013.35Z" transform="translate(200 199.73)" style="fill:#d01b00"/><path d="M123.26,1012c-13-7.59-26-15.74-38.46-24.24L478,450c3.84,2.61-4-2.33,0,0Z" transform="translate(200 199.73)" style="fill:#d01b00"/><path d="M849.62,962.66,478,450c3.68-2.87-3.47,3.12,0,0L884.38,933.55C873.18,943.61,861.49,953.41,849.62,962.66Z" transform="translate(200 199.73)" style="fill:#d01b00"/><path d="M48.18,961c-11.84-9.32-23.5-19.18-34.66-29.29L478,450c3.46,3.13-3.66-2.88,0,0Z" transform="translate(200 199.73)" style="fill:#d01b00"/><path d="M917,902.09,478,450c3.25-3.35-3,3.58,0,0L947.42,868.44C937.72,880,927.5,891.28,917,902.09Z" transform="translate(200 199.73)" style="fill:#d01b00"/><path d="M-19,900.06c-10.42-10.85-20.59-22.21-30.23-33.76L478,450c3,3.59-3.23-3.37,0,0Z" transform="translate(200 199.73)" style="fill:#d01b00"/><path d="M975.41,832.73,478,450c2.74-3.76-2.47,3.95,0,0l522.84,345.13C992.86,807.89,984.29,820.54,975.41,832.73Z" transform="translate(200 199.73)" style="fill:#d01b00"/><path d="M-77,830.47c-8.82-12.21-17.33-24.89-25.28-37.68L478,450c2.46,3.95-2.72-3.77,0,0Z" transform="translate(200 199.73)" style="fill:#d01b00"/><path d="M1023.7,755.74,478,450c2.19-4.1-1.88,4.22,0,0L1043.7,714.87C1037.54,728.65,1030.82,742.41,1023.7,755.74Z" transform="translate(200 199.73)" style="fill:#d01b00"/><path d="M-124.94,753.4c-7.05-13.34-13.72-27.1-19.81-40.9L478,450c1.87,4.22-2.15-4.08,0,0Z" transform="translate(200 199.73)" style="fill:#d01b00"/><path d="M1060.82,672.59,478,450c1.58-4.33-1.27,4.43,0,0L1074.9,629.28C1070.73,643.82,1066,658.39,1060.82,672.59Z" transform="translate(200 199.73)" style="fill:#d01b00"/><path d="M-161.66,670.27c-5.13-14.23-9.81-28.83-13.92-43.37L478,450c1.25,4.42-1.56-4.33,0,0Z" transform="translate(200 199.73)" style="fill:#d01b00"/><path d="M1085.89,585.1,478,450c1-4.5-.64,4.58,0,0l615.71,90.3C1091.67,555.25,1089,570.33,1085.89,585.1Z" transform="translate(200 199.73)" style="fill:#d01b00"/><path d="M-186.4,582.67c-3.07-14.78-5.66-29.86-7.69-44.82L478,450c.62,4.59-.94-4.52,0,0Z" transform="translate(200 199.73)" style="fill:#d01b00"/><path d="M1098.45,495.17,478,450c.32-4.68,0,4.74,0,0h622C1100,465,1099.48,480.23,1098.45,495.17Z" transform="translate(200 199.73)" style="fill:#d01b00"/><path d="M-198.61,492.71c-.92-14.13-1.39-28.5-1.39-42.71v-2.44L478,450h0c0,4.48-.29-4.43,0,0Z" transform="translate(200 199.73)" style="fill:#d01b00"/><path d="M478,450c-.29-4.67.61,4.62,0,0l616.38-85.38c2,14.91,3.42,30.1,4.35,45.13Z" transform="translate(200 199.73)" style="fill:#d01b00"/><path d="M478,450l-676.31-47.62c1.09-15,2.73-30.22,4.87-45.12L478,450C477.38,454.58,478.38,445.33,478,450Z" transform="translate(200 199.73)" style="fill:#d01b00"/><path d="M478,450c-.92-4.52,1.24,4.44,0,0l598.21-174.51c4,14.56,7.63,29.46,10.65,44.27Z" transform="translate(200 199.73)" style="fill:#d01b00"/><path d="M478,450-185.38,312.48c3.19-14.77,6.95-29.63,11.16-44.14L478,450C476.76,454.41,479,445.49,478,450Z" transform="translate(200 199.73)" style="fill:#d01b00"/><path d="M478,450c-1.54-4.34,1.84,4.21,0,0l567.71-260.22c6,13.82,11.68,28,16.74,42.28Z" transform="translate(200 199.73)" style="fill:#d01b00"/><path d="M478,450-160,225.06c5.23-14.19,11.05-28.39,17.27-42.18L478,450C476.14,454.2,479.64,445.67,478,450Z" transform="translate(200 199.73)" style="fill:#d01b00"/><path d="M478,450c-2.15-4.1,2.43,3.95,0,0l525.59-340.68c7.91,12.84,15.47,26.12,22.46,39.47Z" transform="translate(200 199.73)" style="fill:#d01b00"/><path d="M478,450-122.52,142.06c7.16-13.29,14.88-26.5,23-39.26L478,450C475.56,453.92,480.24,445.91,478,450Z" transform="translate(200 199.73)" style="fill:#d01b00"/><path d="M478,450c-2.72-3.79,3,3.6,0,0L950.8,35.62c9.6,11.59,18.91,23.67,27.68,35.9Z" transform="translate(200 199.73)" style="fill:#d01b00"/><path d="M478,450-74,65.28C-65,53.15-55.58,41.17-45.83,29.68L478,450C475,453.56,480.8,446.24,478,450Z" transform="translate(200 199.73)" style="fill:#d01b00"/><path d="M478,450c-3.21-3.38,3.45,3.15,0,0L888.29-30c11.12,10.15,22,20.83,32.41,31.73Z" transform="translate(200 199.73)" style="fill:#d01b00"/><path d="M478,450-15.3-3.87C-4.8-14.64,6.23-25.18,17.46-35.19L478,450C474.55,453.1,481.31,446.64,478,450Z" transform="translate(200 199.73)" style="fill:#d01b00"/><path d="M478,450c-3.66-2.91,3.84,2.64,0,0L817.24-86.37c12.42,8.52,24.7,17.58,36.51,27Z" transform="translate(200 199.73)" style="fill:#d01b00"/><path d="M478,450,52.33-64.19c11.91-9.22,24.3-18.13,36.81-26.5L478,450C474.17,452.58,481.73,447.14,478,450Z" transform="translate(200 199.73)" style="fill:#d01b00"/><path d="M478,450c-4-2.35,4.15,2.06,0,0L738.85-132.4c13.53,6.72,27,14,40,21.66Z" transform="translate(200 199.73)" style="fill:#d01b00"/><path d="M478,450,127.75-114.58c13.1-7.49,26.63-14.61,40.22-21.15L478,450C473.89,452,482.06,447.7,478,450Z" transform="translate(200 199.73)" style="fill:#d01b00"/><path d="M478,450c-4.26-1.75,4.37,1.45,0,0L654.6-167.08c14.37,4.76,28.76,10.1,42.76,15.87Z" transform="translate(200 199.73)" style="fill:#d01b00"/><path d="M478,450,209.59-154c14-5.59,28.47-10.76,42.88-15.35L478,450C473.66,451.39,482.32,448.29,478,450Z" transform="translate(200 199.73)" style="fill:#d01b00"/><path d="M478,450c-4.46-1.14,4.54.82,0,0l88.38-639.55c14.87,2.69,29.83,5.95,44.46,9.68Z" transform="translate(200 199.73)" style="fill:#d01b00"/><path d="M478,450,296.34-181.68c14.66-3.56,29.66-6.64,44.56-9.17L478,450C473.48,450.76,482.52,448.9,478,450Z" transform="translate(200 199.73)" style="fill:#d01b00"/><path d="M478,450c-4.64-.51,4.69.19,0,0l-1.77-649.47c15,.61,30.23,1.74,45.17,3.38Z" transform="translate(200 199.73)" style="fill:#d01b00"/><path d="M478,450,385.93-196.87c14.95-1.46,30.15-2.43,45.19-2.86L478,450C473.34,450.13,482.69,449.53,478,450Z" transform="translate(200 199.73)" style="fill:#d01b00"/></g><rect x="200" y="199.73" width="900" height="900" style="mix-blend-mode:multiply;fill:url(#radial-gradient)"/></g></g></svg>