<svg xmlns="http://www.w3.org/2000/svg" xmlns:xlink="http://www.w3.org/1999/xlink" viewBox="0 0 1300 1299.73"><defs><style>.cls-1{fill:#d91e01;}.cls-2{isolation:isolate;}.cls-3{clip-path:url(#clip-path);}.cls-4{fill:#d01b00;}.cls-5{mix-blend-mode:multiply;fill:url(#radial-gradient);}</style><clipPath id="clip-path" transform="translate(228 199.86)"><rect class="cls-1" width="900" height="900"/></clipPath><radialGradient id="radial-gradient" cx="678" cy="649.86" r="450" gradientUnits="userSpaceOnUse"><stop offset="0" stop-color="#ff0"/><stop offset="0.18" stop-color="#e3dc00"/><stop offset="0.57" stop-color="#9c8300"/><stop offset="1" stop-color="#481b00"/></radialGradient></defs><title>bg</title><g class="cls-2"><g id="Layer_1" data-name="Layer 1"><rect class="cls-1" x="228" y="199.86" width="900" height="900"/><g class="cls-3"><path class="cls-4" d="M422.05,1099.86c-8,0-16-.14-23.86-.43l51.86-649.57c4.67.16-4.75.15,0,0l-6.7,649.66C436.3,1099.75,429.14,1099.86,422.05,1099.86Z" transform="translate(228 199.86)"/><path class="cls-4" d="M488.53,1096.48,450.05,449.86c4.62-.48-4.56.79,0,0l83.49,640.43C518.69,1092.87,503.55,1095,488.53,1096.48Z" transform="translate(228 199.86)"/><path class="cls-4" d="M353,1096.23c-15-1.59-30.15-3.73-45-6.36l142-640c4.55.8-4.63-.49,0,0Z" transform="translate(228 199.86)"/><path class="cls-4" d="M578.1,1081l-128-631.09c4.47-1.11-4.37,1.41,0,0L621.9,1068.48C607.52,1073.13,592.79,1077.32,578.1,1081Z" transform="translate(228 199.86)"/><path class="cls-4" d="M263.52,1080.35c-14.67-3.68-29.4-7.93-43.77-12.63l230.3-617.86c4.36,1.42-4.46-1.12,0,0Z" transform="translate(228 199.86)"/><path class="cls-4" d="M664.73,1053,450.05,449.86c4.27-1.73-4.15,2,0,0l256.22,584.66C692.7,1041.12,678.72,1047.33,664.73,1053Z" transform="translate(228 199.86)"/><path class="cls-4" d="M176.94,1052c-14-5.7-28-12-41.56-18.65L450.05,449.86c4.15,2-4.28-1.75,0,0Z" transform="translate(228 199.86)"/><path class="cls-4" d="M746.4,1013.21,450.05,449.86c4-2.32-3.85,2.59,0,0L784.91,989.17C772.41,997.6,759.45,1005.68,746.4,1013.21Z" transform="translate(228 199.86)"/><path class="cls-4" d="M95.27,1011.85c-13-7.59-26-15.74-38.47-24.23L450.05,449.86c3.84,2.61-4-2.34,0,0Z" transform="translate(228 199.86)"/><path class="cls-4" d="M821.63,962.53,450.05,449.86c3.68-2.88-3.48,3.12,0,0L856.38,933.42C845.18,943.48,833.49,953.27,821.63,962.53Z" transform="translate(228 199.86)"/><path class="cls-4" d="M20.18,960.81c-11.83-9.32-23.49-19.17-34.65-29.29L450.05,449.86c3.45,3.13-3.67-2.89,0,0Z" transform="translate(228 199.86)"/><path class="cls-4" d="M889,902l-439-452.1c3.24-3.36-3,3.57,0,0L919.42,868.3C909.72,879.82,899.5,891.14,889,902Z" transform="translate(228 199.86)"/><path class="cls-4" d="M-47,899.93c-10.42-10.86-20.59-22.22-30.23-33.77l527.26-416.3c3,3.59-3.24-3.38,0,0Z" transform="translate(228 199.86)"/><path class="cls-4" d="M947.42,832.59,450.05,449.86c2.74-3.76-2.48,3.94,0,0L972.88,795C964.87,807.76,956.3,820.41,947.42,832.59Z" transform="translate(228 199.86)"/><path class="cls-4" d="M-105,830.33c-8.82-12.21-17.33-24.88-25.28-37.68L450.05,449.86c2.45,3.94-2.73-3.77,0,0Z" transform="translate(228 199.86)"/><path class="cls-4" d="M995.7,755.61,450.05,449.86c2.18-4.1-1.89,4.22,0,0L1015.7,714.73C1009.55,728.52,1002.82,742.27,995.7,755.61Z" transform="translate(228 199.86)"/><path class="cls-4" d="M-152.94,753.26c-7.05-13.34-13.71-27.09-19.81-40.89l622.8-262.51c1.86,4.22-2.16-4.09,0,0Z" transform="translate(228 199.86)"/><path class="cls-4" d="M1032.82,672.46,450.05,449.86c1.57-4.33-1.27,4.42,0,0L1046.9,629.15C1042.74,643.68,1038,658.25,1032.82,672.46Z" transform="translate(228 199.86)"/><path class="cls-4" d="M-189.66,670.13c-5.13-14.23-9.81-28.82-13.92-43.37l653.63-176.9c1.24,4.42-1.57-4.34,0,0Z" transform="translate(228 199.86)"/><path class="cls-4" d="M1057.9,585,450.05,449.86c.95-4.51-.64,4.58,0,0l615.71,90.29C1063.67,555.12,1061,570.2,1057.9,585Z" transform="translate(228 199.86)"/><path class="cls-4" d="M-214.4,582.53c-3.07-14.77-5.66-29.85-7.68-44.82l672.13-87.85c.62,4.58-.94-4.52,0,0Z" transform="translate(228 199.86)"/><path class="cls-4" d="M1070.45,495l-620.4-45.18c.32-4.68,0,4.73,0,0h622C1072,464.89,1071.48,480.09,1070.45,495Z" transform="translate(228 199.86)"/><path class="cls-4" d="M-226.61,492.57c-.92-14.13-1.39-28.5-1.39-42.71v-2.43l678,2.43h0c0,4.48-.29-4.44,0,0Z" transform="translate(228 199.86)"/><path class="cls-4" d="M450.05,449.86c-.29-4.67.6,4.61,0,0l616.37-85.39c2,14.91,3.43,30.1,4.35,45.13Z" transform="translate(228 199.86)"/><path class="cls-4" d="M450.05,449.86l-676.32-47.63c1.1-15,2.73-30.22,4.87-45.12l671.45,92.75C449.39,454.45,450.38,445.2,450.05,449.86Z" transform="translate(228 199.86)"/><path class="cls-4" d="M450.05,449.86c-.92-4.52,1.23,4.43,0,0l598.2-174.51c4,14.56,7.64,29.45,10.66,44.26Z" transform="translate(228 199.86)"/><path class="cls-4" d="M450.05,449.86-213.37,312.35c3.18-14.78,6.94-29.63,11.16-44.14L450.05,449.86C448.76,454.28,451,445.35,450.05,449.86Z" transform="translate(228 199.86)"/><path class="cls-4" d="M450.05,449.86c-1.55-4.34,1.84,4.21,0,0l567.7-260.23c6,13.83,11.68,28.05,16.75,42.28Z" transform="translate(228 199.86)"/><path class="cls-4" d="M450.05,449.86-188,224.93c5.24-14.2,11.05-28.39,17.27-42.19L450.05,449.86C448.15,454.06,451.64,445.53,450.05,449.86Z" transform="translate(228 199.86)"/><path class="cls-4" d="M450.05,449.86c-2.15-4.11,2.43,3.94,0,0L975.64,109.18c7.91,12.83,15.46,26.11,22.46,39.47Z" transform="translate(228 199.86)"/><path class="cls-4" d="M450.05,449.86-150.52,141.92c7.16-13.28,14.88-26.49,23-39.26l577.61,347.2C447.56,453.78,452.24,445.78,450.05,449.86Z" transform="translate(228 199.86)"/><path class="cls-4" d="M450.05,449.86c-2.72-3.8,3,3.59,0,0L922.81,35.48c9.59,11.59,18.91,23.67,27.68,35.9Z" transform="translate(228 199.86)"/><path class="cls-4" d="M450.05,449.86l-552-384.71C-93,53-83.57,41-73.82,29.55L450.05,449.86C447,453.42,452.81,446.1,450.05,449.86Z" transform="translate(228 199.86)"/><path class="cls-4" d="M450.05,449.86c-3.22-3.38,3.45,3.15,0,0l410.24-480C871.42-20,882.32-9.31,892.7,1.59Z" transform="translate(228 199.86)"/><path class="cls-4" d="M450.05,449.86-43.3-4c10.51-10.77,21.53-21.31,32.76-31.33L450.05,449.86C446.55,453,453.31,446.51,450.05,449.86Z" transform="translate(228 199.86)"/><path class="cls-4" d="M450.05,449.86c-3.67-2.91,3.84,2.63,0,0L789.24-86.5c12.42,8.51,24.7,17.58,36.51,26.94Z" transform="translate(228 199.86)"/><path class="cls-4" d="M450.05,449.86,24.34-64.32c11.91-9.22,24.29-18.14,36.81-26.5l388.9,540.68C446.18,452.44,453.73,447,450.05,449.86Z" transform="translate(228 199.86)"/><path class="cls-4" d="M450.05,449.86c-4-2.36,4.14,2.05,0,0L710.86-132.53c13.52,6.71,27,14,40,21.65Z" transform="translate(228 199.86)"/><path class="cls-4" d="M450.05,449.86,99.75-114.72c13.11-7.48,26.64-14.6,40.22-21.15L450.05,449.86C445.89,451.86,454.06,447.56,450.05,449.86Z" transform="translate(228 199.86)"/><path class="cls-4" d="M450.05,449.86c-4.27-1.76,4.37,1.44,0,0L626.61-167.22c14.37,4.77,28.75,10.11,42.76,15.87Z" transform="translate(228 199.86)"/><path class="cls-4" d="M450.05,449.86l-268.46-604c14-5.6,28.48-10.76,42.88-15.35L450.05,449.86C445.66,451.25,454.32,448.15,450.05,449.86Z" transform="translate(228 199.86)"/><path class="cls-4" d="M450.05,449.86c-4.47-1.14,4.54.82,0,0L538.42-189.7c14.87,2.7,29.83,5.95,44.47,9.68Z" transform="translate(228 199.86)"/><path class="cls-4" d="M450.05,449.86,268.34-181.81C283-185.37,298-188.46,312.9-191L450.05,449.86C445.49,450.63,454.52,448.77,450.05,449.86Z" transform="translate(228 199.86)"/><path class="cls-4" d="M450.05,449.86c-4.64-.51,4.69.18,0,0l-1.78-649.47c15,.6,30.24,1.74,45.17,3.38Z" transform="translate(228 199.86)"/><path class="cls-4" d="M450.05,449.86,357.94-197c14.94-1.47,30.14-2.43,45.18-2.86l46.93,649.72C445.34,450,454.7,449.4,450.05,449.86Z" transform="translate(228 199.86)"/></g><rect class="cls-5" x="228" y="199.86" width="900" height="900"/></g></g></svg>